Dingbats.ufo
<glyph name="a163" format="1">
  <advance width="1016"/>
  <unicode hex="2194"/>
  <outline>
    <contour>
      <point x="213" y="353" type="curve"/>
      <point x="803" y="353" type="line"/>
      <point x="760" y="390"/>
      <point x="724" y="476"/>
      <point x="726" y="537" type="curve"/>
      <point x="795" y="444"/>
      <point x="897" y="366"/>
      <point x="981" y="343" type="curve"/>
      <point x="896" y="321"/>
      <point x="785" y="237"/>
      <point x="726" y="151" type="curve"/>
      <point x="724" y="211"/>
      <point x="747" y="265"/>
      <point x="803" y="334" type="curve"/>
      <point x="213" y="334" type="line"/>
      <point x="257" y="295"/>
      <point x="292" y="212"/>
      <point x="290" y="151" type="curve"/>
      <point x="224" y="241"/>
      <point x="117" y="321"/>
      <point x="34" y="343" type="curve"/>
      <point x="118" y="366"/>
      <point x="231" y="452"/>
      <point x="290" y="537" type="curve"/>
      <point x="292" y="479"/>
      <point x="267" y="419"/>
    </contour>
  </outline>
</glyph>
<glyph name="a164" format="1">
  <advance width="458"/>
  <unicode hex="2195"/>
  <outline>
    <contour>
      <point x="238" y="640" type="curve"/>
      <point x="238" y="51" type="line"/>
      <point x="276" y="95"/>
      <point x="361" y="130"/>
      <point x="422" y="128" type="curve"/>
      <point x="331" y="61"/>
      <point x="252" y="-42"/>
      <point x="228" y="-128" type="curve"/>
      <point x="205" y="-42"/>
      <point x="121" y="68"/>
      <point x="35" y="128" type="curve"/>
      <point x="93" y="131"/>
      <point x="150" y="107"/>
      <point x="219" y="51" type="curve"/>
      <point x="219" y="640" type="line"/>
      <point x="179" y="596"/>
      <point x="96" y="561"/>
      <point x="35" y="563" type="curve"/>
      <point x="128" y="633"/>
      <point x="204" y="733"/>
      <point x="228" y="819" type="curve"/>
      <point x="252" y="733"/>
      <point x="337" y="621"/>
      <point x="422" y="563" type="curve"/>
      <point x="363" y="561"/>
      <point x="304" y="586"/>
    </contour>
  </outline>
</glyph>
<glyph name="a127" format="1">
  <advance width="788"/>
  <unicode hex="2467"/>
  <outline>
    <contour>
      <point x="458" y="400" type="curve"/>
      <point x="535" y="362"/>
      <point x="566" y="322"/>
      <point x="566" y="262" type="curve" smooth="yes"/>
      <point x="566" y="174"/>
      <point x="491" y="111"/>
      <point x="387" y="111" type="curve" smooth="yes"/>
      <point x="289" y="111"/>
      <point x="224" y="161"/>
      <point x="224" y="237" type="curve" smooth="yes"/>
      <point x="224" y="293"/>
      <point x="249" y="326"/>
      <point x="324" y="369" type="curve"/>
      <point x="273" y="403"/>
      <point x="256" y="428"/>
      <point x="256" y="472" type="curve" smooth="yes"/>
      <point x="256" y="544"/>
      <point x="317" y="595"/>
      <point x="402" y="595" type="curve" smooth="yes"/>
      <point x="476" y="595"/>
      <point x="530" y="555"/>
      <point x="530" y="499" type="curve" smooth="yes"/>
      <point x="530" y="460"/>
      <point x="512" y="435"/>
    </contour>
    <contour>
      <point x="382" y="439" type="curve" smooth="yes"/>
      <point x="424" y="416" type="line"/>
      <point x="458" y="437"/>
      <point x="474" y="462"/>
      <point x="474" y="494" type="curve" smooth="yes"/>
      <point x="474" y="534"/>
      <point x="444" y="562"/>
      <point x="401" y="562" type="curve" smooth="yes"/>
      <point x="362" y="562"/>
      <point x="332" y="536"/>
      <point x="332" y="502" type="curve" smooth="yes"/>
      <point x="332" y="477"/>
      <point x="347" y="458"/>
    </contour>
    <contour>
      <point x="415" y="317" type="curve" smooth="yes"/>
      <point x="357" y="350" type="line"/>
      <point x="313" y="324"/>
      <point x="289" y="285"/>
      <point x="289" y="241" type="curve" smooth="yes"/>
      <point x="289" y="185"/>
      <point x="330" y="144"/>
      <point x="385" y="144" type="curve" smooth="yes"/>
      <point x="438" y="144"/>
      <point x="479" y="181"/>
      <point x="479" y="230" type="curve" smooth="yes"/>
      <point x="479" y="266"/>
      <point x="460" y="292"/>
    </contour>
    <contour>
      <point x="400" y="706" type="curve" smooth="yes"/>
      <point x="593" y="706"/>
      <point x="754" y="542"/>
      <point x="754" y="347" type="curve" smooth="yes"/>
      <point x="754" y="148"/>
      <point x="593" y="-13"/>
      <point x="395" y="-13" type="curve" smooth="yes"/>
      <point x="195" y="-13"/>
      <point x="35" y="148"/>
      <point x="35" y="349" type="curve" smooth="yes"/>
      <point x="35" y="547"/>
      <point x="198" y="706"/>
    </contour>
    <contour>
      <point x="400" y="673" type="curve" smooth="yes"/>
      <point x="300" y="673"/>
      <point x="217" y="637"/>
      <point x="152" y="565" type="curve" smooth="yes"/>
      <point x="98" y="506"/>
      <point x="68" y="427"/>
      <point x="68" y="349" type="curve" smooth="yes"/>
      <point x="68" y="166"/>
      <point x="213" y="20"/>
      <point x="394" y="20" type="curve" smooth="yes"/>
      <point x="575" y="20"/>
      <point x="721" y="166"/>
      <point x="721" y="347" type="curve" smooth="yes"/>
      <point x="721" y="441"/>
      <point x="684" y="524"/>
      <point x="613" y="589" type="curve" smooth="yes"/>
      <point x="556" y="641"/>
      <point x="474" y="673"/>
    </contour>
  </outline>
</glyph>
<glyph name="a129" format="1">
  <advance width="788"/>
  <unicode hex="2469"/>
  <outline>
    <contour>
      <point x="318" y="589" type="line"/>
      <point x="318" y="200" type="line" smooth="yes"/>
      <point x="318" y="162"/>
      <point x="326" y="153"/>
      <point x="357" y="153" type="curve" smooth="yes"/>
      <point x="376" y="153" type="line"/>
      <point x="376" y="118" type="line"/>
      <point x="178" y="118" type="line"/>
      <point x="178" y="153" type="line"/>
      <point x="203" y="153" type="line" smooth="yes"/>
      <point x="232" y="153"/>
      <point x="236" y="158"/>
      <point x="236" y="193" type="curve" smooth="yes"/>
      <point x="236" y="458" type="line"/>
      <point x="235" y="497"/>
      <point x="233" y="499"/>
      <point x="203" y="499" type="curve" smooth="yes"/>
      <point x="152" y="499" type="line"/>
      <point x="152" y="525" type="line"/>
      <point x="221" y="530"/>
      <point x="260" y="549"/>
      <point x="284" y="589" type="curve"/>
    </contour>
    <contour>
      <point x="505" y="595" type="curve" smooth="yes"/>
      <point x="607" y="595"/>
      <point x="656" y="513"/>
      <point x="656" y="344" type="curve" smooth="yes"/>
      <point x="656" y="269"/>
      <point x="643" y="206"/>
      <point x="619" y="166" type="curve" smooth="yes"/>
      <point x="596" y="129"/>
      <point x="560" y="111"/>
      <point x="505" y="111" type="curve" smooth="yes"/>
      <point x="472" y="111"/>
      <point x="441" y="122"/>
      <point x="423" y="138" type="curve"/>
      <point x="382" y="178"/>
      <point x="361" y="250"/>
      <point x="361" y="353" type="curve" smooth="yes"/>
      <point x="361" y="509"/>
      <point x="412" y="595"/>
    </contour>
    <contour>
      <point x="509" y="562" type="curve" smooth="yes"/>
      <point x="475" y="562"/>
      <point x="457" y="491"/>
      <point x="457" y="355" type="curve" smooth="yes"/>
      <point x="457" y="220"/>
      <point x="475" y="147"/>
      <point x="508" y="147" type="curve" smooth="yes"/>
      <point x="543" y="147"/>
      <point x="560" y="215"/>
      <point x="560" y="354" type="curve" smooth="yes"/>
      <point x="560" y="493"/>
      <point x="543" y="562"/>
    </contour>
    <contour>
      <point x="400" y="706" type="curve" smooth="yes"/>
      <point x="593" y="706"/>
      <point x="754" y="542"/>
      <point x="754" y="347" type="curve" smooth="yes"/>
      <point x="754" y="148"/>
      <point x="593" y="-13"/>
      <point x="395" y="-13" type="curve" smooth="yes"/>
      <point x="195" y="-13"/>
      <point x="35" y="148"/>
      <point x="35" y="349" type="curve" smooth="yes"/>
      <point x="35" y="547"/>
      <point x="198" y="706"/>
    </contour>
    <contour>
      <point x="400" y="673" type="curve" smooth="yes"/>
      <point x="300" y="673"/>
      <point x="217" y="637"/>
      <point x="152" y="565" type="curve" smooth="yes"/>
      <point x="98" y="506"/>
      <point x="68" y="428"/>
      <point x="68" y="349" type="curve" smooth="yes"/>
      <point x="68" y="166"/>
      <point x="213" y="20"/>
      <point x="395" y="20" type="curve" smooth="yes"/>
      <point x="575" y="20"/>
      <point x="721" y="166"/>
      <point x="721" y="347" type="curve" smooth="yes"/>
      <point x="721" y="441"/>
      <point x="684" y="524"/>
      <point x="613" y="589" type="curve" smooth="yes"/>
      <point x="556" y="641"/>
      <point x="474" y="673"/>
    </contour>
  </outline>
</glyph>
<glyph name="a76" format="1">
  <advance width="892"/>
  <unicode hex="25B2"/>
  <outline>
    <contour>
      <point x="858" y="0" type="line"/>
      <point x="35" y="0" type="line"/>
      <point x="447" y="706" type="line"/>
    </contour>
  </outline>
</glyph>
<glyph name="a77" format="1">
  <advance width="892"/>
  <unicode hex="25BC"/>
  <outline>
    <contour>
      <point x="858" y="691" type="line"/>
      <point x="447" y="-14" type="line"/>
      <point x="35" y="691" type="line"/>
    </contour>
  </outline>
</glyph>
<glyph name="a78" format="1">
  <advance width="788"/>
  <unicode hex="25C6"/>
  <outline>
    <contour>
      <point x="395" y="-14" type="line"/>
      <point x="35" y="346" type="line"/>
      <point x="395" y="705" type="line"/>
      <point x="754" y="346" type="line"/>
    </contour>
  </outline>
</glyph>
<glyph name="a71" format="1">
  <advance width="791"/>
  <unicode hex="25CF"/>
  <outline>
    <contour>
      <point x="402" y="708" type="curve" smooth="yes"/>
      <point x="595" y="708"/>
      <point x="757" y="544"/>
      <point x="757" y="347" type="curve" smooth="yes"/>
      <point x="757" y="148"/>
      <point x="595" y="-14"/>
      <point x="396" y="-14" type="curve" smooth="yes"/>
      <point x="196" y="-14"/>
      <point x="35" y="148"/>
      <point x="35" y="350" type="curve" smooth="yes"/>
      <point x="35" y="549"/>
      <point x="198" y="708"/>
    </contour>
  </outline>
</glyph>
<glyph name="a81" format="1">
  <advance width="438"/>
  <unicode hex="25D7"/>
  <outline>
    <contour>
      <point x="35" y="705" type="line"/>
      <point x="46" y="705" type="line" smooth="yes"/>
      <point x="239" y="705"/>
      <point x="403" y="540"/>
      <point x="403" y="346" type="curve" smooth="yes"/>
      <point x="403" y="204"/>
      <point x="314" y="69"/>
      <point x="186" y="15" type="curve" smooth="yes"/>
      <point x="141" y="-4"/>
      <point x="96" y="-13"/>
      <point x="35" y="-14" type="curve"/>
    </contour>
  </outline>
</glyph>
<glyph name="a35" format="1">
  <advance width="816"/>
  <unicode hex="2605"/>
  <outline>
    <contour>
      <point x="409" y="707" type="line"/>
      <point x="494" y="437" type="line"/>
      <point x="782" y="437" type="line"/>
      <point x="551" y="263" type="line"/>
      <point x="640" y="-13" type="line"/>
      <point x="409" y="157" type="line"/>
      <point x="179" y="-13" type="line"/>
      <point x="269" y="263" type="line"/>
      <point x="35" y="437" type="line"/>
      <point x="322" y="437" type="line"/>
    </contour>
  </outline>
</glyph>
<glyph name="a11" format="1">
  <advance width="960"/>
  <unicode hex="261B"/>
  <outline>
    <contour>
      <point x="662" y="425" type="curve"/>
      <point x="644" y="424" type="line"/>
      <point x="682" y="392"/>
      <point x="689" y="381"/>
      <point x="689" y="361" type="curve" smooth="yes"/>
      <point x="689" y="339"/>
      <point x="672" y="321"/>
      <point x="637" y="307" type="curve"/>
      <point x="651" y="292"/>
      <point x="656" y="280"/>
      <point x="656" y="263" type="curve" smooth="yes"/>
      <point x="656" y="240"/>
      <point x="646" y="229"/>
      <point x="615" y="220" type="curve"/>
      <point x="616" y="211"/>
      <point x="617" y="203"/>
      <point x="617" y="196" type="curve" smooth="yes"/>
      <point x="617" y="169"/>
      <point x="600" y="153"/>
      <point x="563" y="145" type="curve" smooth="yes"/>
      <point x="504" y="132"/>
      <point x="434" y="122"/>
      <point x="401" y="122" type="curve" smooth="yes"/>
      <point x="359" y="122"/>
      <point x="357" y="123"/>
      <point x="281" y="165" type="curve" smooth="yes"/>
      <point x="271" y="171"/>
      <point x="266" y="174"/>
      <point x="260" y="176" type="curve" smooth="yes"/>
      <point x="255" y="178"/>
      <point x="253" y="178"/>
      <point x="233" y="180" type="curve" smooth="yes"/>
      <point x="207" y="182"/>
      <point x="156" y="190"/>
      <point x="140" y="194" type="curve" smooth="yes"/>
      <point x="122" y="199"/>
      <point x="103" y="268"/>
      <point x="103" y="329" type="curve" smooth="yes"/>
      <point x="103" y="388"/>
      <point x="119" y="443"/>
      <point x="142" y="461" type="curve" smooth="yes"/>
      <point x="153" y="470"/>
      <point x="154" y="470"/>
      <point x="202" y="473" type="curve" smooth="yes"/>
      <point x="238" y="476"/>
      <point x="245" y="478"/>
      <point x="274" y="495" type="curve" smooth="yes"/>
      <point x="305" y="512"/>
      <point x="353" y="535"/>
      <point x="398" y="554" type="curve" smooth="yes"/>
      <point x="423" y="565"/>
      <point x="437" y="568"/>
      <point x="461" y="568" type="curve" smooth="yes"/>
      <point x="512" y="568"/>
      <point x="645" y="552"/>
      <point x="691" y="541" type="curve" smooth="yes"/>
      <point x="739" y="529"/>
      <point x="847" y="490"/>
      <point x="884" y="471" type="curve" smooth="yes"/>
      <point x="912" y="456"/>
      <point x="925" y="444"/>
      <point x="925" y="430" type="curve" smooth="yes"/>
      <point x="925" y="420"/>
      <point x="917" y="413"/>
      <point x="899" y="408" type="curve" smooth="yes"/>
      <point x="883" y="403"/>
      <point x="844" y="399"/>
      <point x="823" y="399" type="curve" smooth="yes"/>
      <point x="804" y="399"/>
      <point x="798" y="400"/>
      <point x="757" y="410" type="curve" smooth="yes"/>
      <point x="723" y="419"/>
      <point x="682" y="425"/>
    </contour>
    <contour>
      <point x="141" y="494" type="curve"/>
      <point x="120" y="493"/>
      <point x="112" y="491"/>
      <point x="100" y="479" type="curve" smooth="yes"/>
      <point x="76" y="454"/>
      <point x="59" y="388"/>
      <point x="59" y="317" type="curve" smooth="yes"/>
      <point x="59" y="217"/>
      <point x="87" y="159"/>
      <point x="135" y="159" type="curve" smooth="yes"/>
      <point x="136" y="159"/>
      <point x="138" y="159"/>
      <point x="141" y="160" type="curve"/>
      <point x="132" y="149"/>
      <point x="124" y="145"/>
      <point x="113" y="145" type="curve" smooth="yes"/>
      <point x="65" y="145"/>
      <point x="35" y="211"/>
      <point x="35" y="317" type="curve" smooth="yes"/>
      <point x="35" y="424"/>
      <point x="72" y="510"/>
      <point x="119" y="510" type="curve" smooth="yes"/>
      <point x="128" y="510"/>
      <point x="134" y="506"/>
    </contour>
  </outline>
</glyph>
<glyph name="a112" format="1">
  <advance width="776"/>
  <unicode hex="2663"/>
  <outline>
    <contour>
      <point x="630" y="0" type="line"/>
      <point x="146" y="0" type="line"/>
      <point x="146" y="20" type="line"/>
      <point x="238" y="37"/>
      <point x="269" y="52"/>
      <point x="313" y="99" type="curve"/>
      <point x="358" y="151"/>
      <point x="369" y="186"/>
      <point x="374" y="293" type="curve"/>
      <point x="357" y="261"/>
      <point x="349" y="247"/>
      <point x="335" y="231" type="curve" smooth="yes"/>
      <point x="299" y="186"/>
      <point x="241" y="157"/>
      <point x="191" y="157" type="curve" smooth="yes"/>
      <point x="105" y="157"/>
      <point x="35" y="230"/>
      <point x="35" y="319" type="curve" smooth="yes"/>
      <point x="35" y="406"/>
      <point x="98" y="476"/>
      <point x="177" y="476" type="curve" smooth="yes"/>
      <point x="201" y="476"/>
      <point x="215" y="472"/>
      <point x="248" y="456" type="curve" smooth="yes"/>
      <point x="251" y="454"/>
      <point x="261" y="449"/>
      <point x="269" y="446" type="curve"/>
      <point x="241" y="486"/>
      <point x="230" y="516"/>
      <point x="230" y="552" type="curve" smooth="yes"/>
      <point x="230" y="636"/>
      <point x="301" y="705"/>
      <point x="388" y="705" type="curve" smooth="yes"/>
      <point x="475" y="705"/>
      <point x="546" y="636"/>
      <point x="546" y="552" type="curve" smooth="yes"/>
      <point x="546" y="516"/>
      <point x="535" y="486"/>
      <point x="507" y="446" type="curve"/>
      <point x="516" y="450"/>
      <point x="521" y="452"/>
      <point x="528" y="456" type="curve" smooth="yes"/>
      <point x="561" y="472"/>
      <point x="575" y="476"/>
      <point x="599" y="476" type="curve" smooth="yes"/>
      <point x="678" y="476"/>
      <point x="741" y="406"/>
      <point x="741" y="319" type="curve" smooth="yes"/>
      <point x="741" y="230"/>
      <point x="671" y="157"/>
      <point x="585" y="157" type="curve" smooth="yes"/>
      <point x="535" y="157"/>
      <point x="477" y="186"/>
      <point x="441" y="231" type="curve" smooth="yes"/>
      <point x="427" y="247"/>
      <point x="419" y="261"/>
      <point x="402" y="293" type="curve"/>
      <point x="407" y="186"/>
      <point x="418" y="151"/>
      <point x="463" y="99" type="curve"/>
      <point x="507" y="52"/>
      <point x="538" y="37"/>
      <point x="630" y="20" type="curve"/>
    </contour>
  </outline>
</glyph>
<glyph name="a3" format="1">
  <advance width="980"/>
  <unicode hex="2704"/>
  <outline>
    <contour>
      <point x="182" y="230" type="curve" smooth="yes"/>
      <point x="230" y="230"/>
      <point x="270" y="189"/>
      <point x="270" y="141" type="curve" smooth="yes"/>
      <point x="270" y="92"/>
      <point x="230" y="52"/>
      <point x="181" y="52" type="curve" smooth="yes"/>
      <point x="131" y="52"/>
      <point x="91" y="92"/>
      <point x="91" y="142" type="curve" smooth="yes"/>
      <point x="91" y="191"/>
      <point x="131" y="230"/>
    </contour>
    <contour>
      <point x="187" y="205" type="curve" smooth="yes"/>
      <point x="152" y="205"/>
      <point x="123" y="176"/>
      <point x="123" y="141" type="curve" smooth="yes"/>
      <point x="123" y="105"/>
      <point x="152" y="76"/>
      <point x="186" y="76" type="curve" smooth="yes"/>
      <point x="220" y="76"/>
      <point x="246" y="105"/>
      <point x="246" y="141" type="curve" smooth="yes"/>
      <point x="246" y="176"/>
      <point x="220" y="205"/>
    </contour>
    <contour>
      <point x="181" y="639" type="curve" smooth="yes"/>
      <point x="229" y="639"/>
      <point x="269" y="598"/>
      <point x="269" y="550" type="curve" smooth="yes"/>
      <point x="269" y="501"/>
      <point x="229" y="461"/>
      <point x="180" y="461" type="curve" smooth="yes"/>
      <point x="131" y="461"/>
      <point x="91" y="501"/>
      <point x="91" y="551" type="curve" smooth="yes"/>
      <point x="91" y="600"/>
      <point x="131" y="639"/>
    </contour>
    <contour>
      <point x="185" y="614" type="curve" smooth="yes"/>
      <point x="151" y="614"/>
      <point x="122" y="586"/>
      <point x="122" y="551" type="curve" smooth="yes"/>
      <point x="122" y="517"/>
      <point x="150" y="488"/>
      <point x="184" y="488" type="curve" smooth="yes"/>
      <point x="216" y="488"/>
      <point x="242" y="516"/>
      <point x="242" y="551" type="curve" smooth="yes"/>
      <point x="242" y="585"/>
      <point x="216" y="614"/>
    </contour>
    <contour>
      <point x="470" y="401" type="curve" smooth="yes"/>
      <point x="495" y="401"/>
      <point x="515" y="379"/>
      <point x="515" y="351" type="curve" smooth="yes"/>
      <point x="515" y="322"/>
      <point x="494" y="298"/>
      <point x="469" y="298" type="curve" smooth="yes"/>
      <point x="445" y="298"/>
      <point x="425" y="321"/>
      <point x="425" y="349" type="curve" smooth="yes"/>
      <point x="425" y="378"/>
      <point x="445" y="401"/>
    </contour>
    <contour>
      <point x="472" y="382" type="curve" smooth="yes"/>
      <point x="457" y="382"/>
      <point x="445" y="368"/>
      <point x="445" y="351" type="curve" smooth="yes"/>
      <point x="445" y="335"/>
      <point x="455" y="322"/>
      <point x="470" y="322" type="curve" smooth="yes"/>
      <point x="484" y="322"/>
      <point x="496" y="337"/>
      <point x="496" y="354" type="curve" smooth="yes"/>
      <point x="496" y="369"/>
      <point x="485" y="382"/>
    </contour>
    <contour>
      <point x="945" y="536" type="curve"/>
      <point x="620" y="342" type="line"/>
      <point x="942" y="137" type="line"/>
      <point x="909" y="99"/>
      <point x="854" y="76"/>
      <point x="798" y="76" type="curve" smooth="yes"/>
      <point x="759" y="76"/>
      <point x="701" y="96"/>
      <point x="658" y="125" type="curve" smooth="yes"/>
      <point x="467" y="251" type="line"/>
      <point x="419" y="221" type="line" smooth="yes"/>
      <point x="415" y="219"/>
      <point x="411" y="218"/>
      <point x="405" y="218" type="curve" smooth="yes"/>
      <point x="400" y="218"/>
      <point x="391" y="219"/>
      <point x="383" y="221" type="curve" smooth="yes"/>
      <point x="362" y="225"/>
      <point x="344" y="227"/>
      <point x="334" y="227" type="curve" smooth="yes"/>
      <point x="325" y="227"/>
      <point x="317" y="226"/>
      <point x="300" y="221" type="curve"/>
      <point x="322" y="189"/>
      <point x="330" y="164"/>
      <point x="330" y="134" type="curve" smooth="yes"/>
      <point x="330" y="56"/>
      <point x="269" y="0"/>
      <point x="185" y="0" type="curve" smooth="yes"/>
      <point x="97" y="0"/>
      <point x="38" y="59"/>
      <point x="38" y="148" type="curve" smooth="yes"/>
      <point x="38" y="203"/>
      <point x="60" y="245"/>
      <point x="102" y="272" type="curve"/>
      <point x="140" y="295"/>
      <point x="170" y="301"/>
      <point x="262" y="303" type="curve" smooth="yes"/>
      <point x="312" y="304"/>
      <point x="338" y="318"/>
      <point x="338" y="345" type="curve" smooth="yes"/>
      <point x="338" y="357"/>
      <point x="330" y="370"/>
      <point x="319" y="375" type="curve" smooth="yes"/>
      <point x="303" y="383"/>
      <point x="293" y="384"/>
      <point x="233" y="387" type="curve" smooth="yes"/>
      <point x="165" y="391"/>
      <point x="123" y="401"/>
      <point x="92" y="423" type="curve" smooth="yes"/>
      <point x="55" y="450"/>
      <point x="35" y="493"/>
      <point x="35" y="544" type="curve" smooth="yes"/>
      <point x="35" y="632"/>
      <point x="94" y="691"/>
      <point x="182" y="691" type="curve" smooth="yes"/>
      <point x="264" y="691"/>
      <point x="330" y="631"/>
      <point x="330" y="558" type="curve" smooth="yes"/>
      <point x="330" y="531"/>
      <point x="321" y="507"/>
      <point x="300" y="474" type="curve"/>
      <point x="311" y="470"/>
      <point x="316" y="469"/>
      <point x="329" y="469" type="curve" smooth="yes"/>
      <point x="349" y="469"/>
      <point x="368" y="472"/>
      <point x="398" y="479" type="curve" smooth="yes"/>
      <point x="405" y="481"/>
      <point x="411" y="482"/>
      <point x="415" y="482" type="curve" smooth="yes"/>
      <point x="429" y="482"/>
      <point x="444" y="474"/>
      <point x="467" y="455" type="curve"/>
      <point x="629" y="550" type="line" smooth="yes"/>
      <point x="695" y="588"/>
      <point x="751" y="607"/>
      <point x="802" y="607" type="curve" smooth="yes"/>
      <point x="858" y="607"/>
      <point x="896" y="588"/>
    </contour>
    <contour>
      <point x="424" y="255" type="curve" smooth="yes"/>
      <point x="910" y="541" type="line"/>
      <point x="875" y="572"/>
      <point x="848" y="583"/>
      <point x="812" y="583" type="curve" smooth="yes"/>
      <point x="786" y="583"/>
      <point x="754" y="574"/>
      <point x="718" y="557" type="curve" smooth="yes"/>
      <point x="707" y="552"/>
      <point x="707" y="552"/>
      <point x="652" y="520" type="curve" smooth="yes"/>
      <point x="359" y="350" type="line"/>
      <point x="360" y="348"/>
      <point x="360" y="346"/>
      <point x="360" y="344" type="curve" smooth="yes"/>
      <point x="364" y="298"/>
      <point x="330" y="275"/>
      <point x="262" y="275" type="curve" smooth="yes"/>
      <point x="205" y="275" type="line" smooth="yes"/>
      <point x="114" y="275"/>
      <point x="62" y="229"/>
      <point x="62" y="146" type="curve" smooth="yes"/>
      <point x="62" y="73"/>
      <point x="110" y="24"/>
      <point x="182" y="24" type="curve" smooth="yes"/>
      <point x="250" y="24"/>
      <point x="298" y="73"/>
      <point x="298" y="143" type="curve" smooth="yes"/>
      <point x="298" y="171"/>
      <point x="292" y="186"/>
      <point x="272" y="210" type="curve"/>
      <point x="270" y="214"/>
      <point x="268" y="218"/>
      <point x="268" y="222" type="curve" smooth="yes"/>
      <point x="268" y="237"/>
      <point x="302" y="253"/>
      <point x="334" y="253" type="curve"/>
      <point x="404" y="250" type="line" smooth="yes"/>
      <point x="410" y="250"/>
      <point x="419" y="252"/>
    </contour>
    <contour>
      <point x="491" y="265" type="line"/>
      <point x="647" y="161" type="line" smooth="yes"/>
      <point x="722" y="111"/>
      <point x="760" y="95"/>
      <point x="806" y="95" type="curve" smooth="yes"/>
      <point x="838" y="95"/>
      <point x="864" y="106"/>
      <point x="899" y="133" type="curve"/>
      <point x="594" y="327" type="line"/>
    </contour>
    <contour>
      <point x="347" y="385" type="curve"/>
      <point x="441" y="441" type="line"/>
      <point x="432" y="454"/>
      <point x="425" y="458"/>
      <point x="412" y="458" type="curve" smooth="yes"/>
      <point x="401" y="458"/>
      <point x="401" y="458"/>
      <point x="367" y="448" type="curve" smooth="yes"/>
      <point x="361" y="446"/>
      <point x="351" y="445"/>
      <point x="337" y="445" type="curve" smooth="yes"/>
      <point x="292" y="445"/>
      <point x="266" y="454"/>
      <point x="266" y="471" type="curve" smooth="yes"/>
      <point x="266" y="477"/>
      <point x="266" y="477"/>
      <point x="281" y="500" type="curve" smooth="yes"/>
      <point x="290" y="514"/>
      <point x="295" y="534"/>
      <point x="295" y="554" type="curve" smooth="yes"/>
      <point x="295" y="619"/>
      <point x="244" y="667"/>
      <point x="175" y="667" type="curve" smooth="yes"/>
      <point x="107" y="667"/>
      <point x="59" y="616"/>
      <point x="59" y="544" type="curve" smooth="yes"/>
      <point x="59" y="467"/>
      <point x="114" y="417"/>
      <point x="198" y="417" type="curve" smooth="yes"/>
      <point x="265" y="417" type="line" smooth="yes"/>
      <point x="304" y="417"/>
      <point x="331" y="406"/>
    </contour>
  </outline>
</glyph>
<glyph name="a117" format="1">
  <advance width="690"/>
  <unicode hex="2709"/>
  <outline>
    <contour>
      <point x="655" y="556" type="line"/>
      <point x="655" y="137" type="line"/>
      <point x="35" y="137" type="line"/>
      <point x="35" y="556" type="line"/>
    </contour>
    <contour>
      <point x="54" y="515" type="line"/>
      <point x="54" y="178" type="line"/>
      <point x="262" y="341" type="line"/>
      <point x="262" y="352" type="line"/>
    </contour>
    <contour>
      <point x="636" y="156" type="line"/>
      <point x="428" y="318" type="line"/>
      <point x="412" y="282"/>
      <point x="383" y="263"/>
      <point x="345" y="263" type="curve" smooth="yes"/>
      <point x="307" y="263"/>
      <point x="279" y="282"/>
      <point x="262" y="318" type="curve"/>
      <point x="54" y="156" type="line"/>
    </contour>
    <contour>
      <point x="636" y="515" type="line"/>
      <point x="428" y="352" type="line"/>
      <point x="428" y="341" type="line"/>
      <point x="636" y="178" type="line"/>
    </contour>
    <contour>
      <point x="636" y="537" type="line"/>
      <point x="54" y="537" type="line"/>
      <point x="262" y="375" type="line"/>
      <point x="278" y="411"/>
      <point x="308" y="430"/>
      <point x="345" y="430" type="curve" smooth="yes"/>
      <point x="383" y="430"/>
      <point x="412" y="411"/>
      <point x="428" y="375" type="curve"/>
    </contour>
  </outline>
</glyph>
<glyph name="a13" format="1">
  <advance width="549"/>
  <unicode hex="270C"/>
  <outline>
    <contour>
      <point x="93" y="292" type="curve"/>
      <point x="94" y="292" type="line"/>
      <point x="89" y="311"/>
      <point x="86" y="329"/>
      <point x="86" y="343" type="curve" smooth="yes"/>
      <point x="86" y="372"/>
      <point x="127" y="412"/>
      <point x="156" y="412" type="curve" smooth="yes"/>
      <point x="164" y="412"/>
      <point x="176" y="409"/>
      <point x="191" y="402" type="curve"/>
      <point x="189" y="410"/>
      <point x="187" y="416"/>
      <point x="187" y="417" type="curve" smooth="yes"/>
      <point x="184" y="427"/>
      <point x="173" y="458"/>
      <point x="155" y="505" type="curve" smooth="yes"/>
      <point x="136" y="557"/>
      <point x="118" y="625"/>
      <point x="118" y="645" type="curve" smooth="yes"/>
      <point x="118" y="676"/>
      <point x="147" y="706"/>
      <point x="177" y="706" type="curve" smooth="yes"/>
      <point x="212" y="706"/>
      <point x="237" y="665"/>
      <point x="278" y="542" type="curve" smooth="yes"/>
      <point x="292" y="499"/>
      <point x="300" y="478"/>
      <point x="312" y="449" type="curve"/>
      <point x="332" y="500"/>
      <point x="349" y="546"/>
      <point x="355" y="562" type="curve" smooth="yes"/>
      <point x="381" y="634"/>
      <point x="395" y="659"/>
      <point x="420" y="680" type="curve" smooth="yes"/>
      <point x="429" y="687"/>
      <point x="440" y="692"/>
      <point x="450" y="692" type="curve" smooth="yes"/>
      <point x="478" y="692"/>
      <point x="500" y="665"/>
      <point x="500" y="631" type="curve" smooth="yes"/>
      <point x="500" y="593"/>
      <point x="488" y="551"/>
      <point x="435" y="402" type="curve"/>
      <point x="445" y="399"/>
      <point x="454" y="396"/>
      <point x="458" y="395" type="curve" smooth="yes"/>
      <point x="483" y="389"/>
      <point x="490" y="384"/>
      <point x="497" y="366" type="curve" smooth="yes"/>
      <point x="510" y="336"/>
      <point x="516" y="300"/>
      <point x="516" y="261" type="curve" smooth="yes"/>
      <point x="516" y="202"/>
      <point x="495" y="133"/>
      <point x="466" y="92" type="curve" smooth="yes"/>
      <point x="422" y="32"/>
      <point x="338" y="-10"/>
      <point x="261" y="-10" type="curve" smooth="yes"/>
      <point x="182" y="-10"/>
      <point x="119" y="19"/>
      <point x="82" y="72" type="curve" smooth="yes"/>
      <point x="50" y="118"/>
      <point x="29" y="179"/>
      <point x="29" y="223" type="curve" smooth="yes"/>
      <point x="29" y="248"/>
      <point x="40" y="269"/>
      <point x="62" y="282" type="curve" smooth="yes"/>
      <point x="73" y="289"/>
      <point x="85" y="293"/>
    </contour>
    <contour>
      <point x="435" y="366" type="curve" smooth="yes"/>
      <point x="280" y="392" type="line" smooth="yes"/>
      <point x="276" y="393"/>
      <point x="264" y="396"/>
      <point x="246" y="402" type="curve"/>
      <point x="241" y="390"/>
      <point x="238" y="380"/>
      <point x="238" y="372" type="curve" smooth="yes"/>
      <point x="238" y="357"/>
      <point x="255" y="333"/>
      <point x="273" y="324" type="curve" smooth="yes"/>
      <point x="289" y="317"/>
      <point x="338" y="304"/>
      <point x="352" y="304" type="curve" smooth="yes"/>
      <point x="353" y="304"/>
      <point x="368" y="306"/>
      <point x="393" y="308" type="curve" smooth="yes"/>
      <point x="399" y="309"/>
      <point x="404" y="309"/>
      <point x="410" y="309" type="curve" smooth="yes"/>
      <point x="420" y="309" type="line"/>
      <point x="420" y="282" type="line"/>
      <point x="382" y="275"/>
      <point x="365" y="267"/>
      <point x="340" y="242" type="curve" smooth="yes"/>
      <point x="311" y="213"/>
      <point x="282" y="164"/>
      <point x="282" y="143" type="curve" smooth="yes"/>
      <point x="282" y="136"/>
      <point x="287" y="116"/>
      <point x="295" y="86" type="curve" smooth="yes"/>
      <point x="296" y="85"/>
      <point x="297" y="80"/>
      <point x="298" y="74" type="curve"/>
      <point x="288" y="65" type="line"/>
      <point x="256" y="97"/>
      <point x="251" y="107"/>
      <point x="246" y="156" type="curve"/>
      <point x="224" y="156" type="line"/>
      <point x="225" y="149"/>
      <point x="225" y="142"/>
      <point x="225" y="138" type="curve" smooth="yes"/>
      <point x="225" y="122"/>
      <point x="221" y="114"/>
      <point x="211" y="106" type="curve" smooth="yes"/>
      <point x="202" y="99"/>
      <point x="187" y="93"/>
      <point x="178" y="93" type="curve" smooth="yes"/>
      <point x="160" y="93"/>
      <point x="134" y="105"/>
      <point x="114" y="123" type="curve" smooth="yes"/>
      <point x="104" y="132"/>
      <point x="91" y="152"/>
      <point x="78" y="177" type="curve"/>
      <point x="78" y="199" type="line"/>
      <point x="86" y="199" type="line"/>
      <point x="99" y="165"/>
      <point x="141" y="123"/>
      <point x="163" y="123" type="curve" smooth="yes"/>
      <point x="177" y="123"/>
      <point x="194" y="135"/>
      <point x="194" y="145" type="curve" smooth="yes"/>
      <point x="194" y="151"/>
      <point x="194" y="151"/>
      <point x="157" y="205" type="curve"/>
      <point x="123" y="257"/>
      <point x="118" y="262"/>
      <point x="102" y="262" type="curve" smooth="yes"/>
      <point x="84" y="262"/>
      <point x="58" y="236"/>
      <point x="58" y="218" type="curve" smooth="yes"/>
      <point x="58" y="213"/>
      <point x="58" y="213"/>
      <point x="81" y="142" type="curve" smooth="yes"/>
      <point x="87" y="125"/>
      <point x="122" y="72"/>
      <point x="134" y="61" type="curve" smooth="yes"/>
      <point x="158" y="41"/>
      <point x="206" y="27"/>
      <point x="255" y="27" type="curve" smooth="yes"/>
      <point x="390" y="27"/>
      <point x="485" y="129"/>
      <point x="485" y="275" type="curve" smooth="yes"/>
      <point x="485" y="316"/>
      <point x="476" y="342"/>
      <point x="457" y="356" type="curve" smooth="yes"/>
      <point x="449" y="362"/>
      <point x="441" y="365"/>
    </contour>
    <contour>
      <point x="283" y="425" type="curve"/>
      <point x="255" y="510"/>
      <point x="215" y="622"/>
      <point x="202" y="645" type="curve"/>
      <point x="194" y="663"/>
      <point x="185" y="670"/>
      <point x="173" y="670" type="curve" smooth="yes"/>
      <point x="161" y="670"/>
      <point x="151" y="657"/>
      <point x="151" y="642" type="curve" smooth="yes"/>
      <point x="151" y="610"/>
      <point x="157" y="588"/>
      <point x="200" y="473" type="curve" smooth="yes"/>
      <point x="214" y="434"/>
      <point x="214" y="434"/>
      <point x="219" y="425" type="curve"/>
      <point x="232" y="428"/>
      <point x="243" y="429"/>
      <point x="249" y="429" type="curve" smooth="yes"/>
      <point x="257" y="429"/>
      <point x="268" y="428"/>
    </contour>
    <contour>
      <point x="340" y="425" type="curve"/>
      <point x="400" y="413" type="line"/>
      <point x="428" y="482"/>
      <point x="468" y="612"/>
      <point x="468" y="634" type="curve" smooth="yes"/>
      <point x="468" y="647"/>
      <point x="457" y="659"/>
      <point x="446" y="659" type="curve" smooth="yes"/>
      <point x="422" y="659"/>
      <point x="418" y="649"/>
    </contour>
    <contour>
      <point x="149" y="374" type="curve"/>
      <point x="127" y="358"/>
      <point x="119" y="348"/>
      <point x="119" y="338" type="curve" smooth="yes"/>
      <point x="119" y="317"/>
      <point x="156" y="257"/>
      <point x="193" y="215" type="curve" smooth="yes"/>
      <point x="206" y="201"/>
      <point x="224" y="190"/>
      <point x="236" y="190" type="curve" smooth="yes"/>
      <point x="248" y="190"/>
      <point x="259" y="200"/>
      <point x="259" y="210" type="curve" smooth="yes"/>
      <point x="259" y="225"/>
      <point x="228" y="286"/>
      <point x="188" y="349" type="curve" smooth="yes"/>
      <point x="179" y="363"/>
      <point x="170" y="369"/>
    </contour>
    <contour>
      <point x="286" y="235" type="line"/>
      <point x="331" y="277" type="line"/>
      <point x="300" y="280"/>
      <point x="289" y="282"/>
      <point x="263" y="290" type="curve"/>
    </contour>
  </outline>
</glyph>
<glyph name="a14" format="1">
  <advance width="855"/>
  <unicode hex="270D"/>
  <outline>
    <contour>
      <point x="82" y="202" type="line"/>
      <point x="117" y="292" type="line"/>
      <point x="127" y="338"/>
      <point x="131" y="352"/>
      <point x="154" y="419" type="curve"/>
      <point x="246" y="506"/>
      <point x="283" y="533"/>
      <point x="348" y="562" type="curve"/>
      <point x="409" y="527" type="line"/>
      <point x="494" y="623" type="line" smooth="yes"/>
      <point x="499" y="628"/>
      <point x="507" y="632"/>
      <point x="515" y="632" type="curve" smooth="yes"/>
      <point x="537" y="632"/>
      <point x="557" y="607"/>
      <point x="557" y="580" type="curve" smooth="yes"/>
      <point x="557" y="573"/>
      <point x="555" y="568"/>
      <point x="550" y="562" type="curve" smooth="yes"/>
      <point x="476" y="478" type="line"/>
      <point x="569" y="419" type="line" smooth="yes"/>
      <point x="591" y="404"/>
      <point x="603" y="401"/>
      <point x="633" y="399" type="curve"/>
      <point x="646" y="419" type="line"/>
      <point x="797" y="410" type="line"/>
      <point x="820" y="339" type="line"/>
      <point x="820" y="236" type="line"/>
      <point x="797" y="94" type="line"/>
      <point x="646" y="94" type="line"/>
      <point x="633" y="150" type="line"/>
      <point x="541" y="127" type="line"/>
      <point x="437" y="138" type="line"/>
      <point x="360" y="131"/>
      <point x="327" y="129"/>
      <point x="310" y="129" type="curve" smooth="yes"/>
      <point x="276" y="129"/>
      <point x="249" y="134"/>
      <point x="189" y="150" type="curve"/>
      <point x="137" y="94" type="line"/>
      <point x="48" y="61" type="line" smooth="yes"/>
      <point x="45" y="60"/>
      <point x="40" y="59"/>
      <point x="38" y="59" type="curve" smooth="yes"/>
      <point x="36" y="59"/>
      <point x="33" y="61"/>
      <point x="33" y="63" type="curve" smooth="yes"/>
      <point x="33" y="63"/>
      <point x="35" y="67"/>
      <point x="38" y="74" type="curve" smooth="yes"/>
      <point x="94" y="185" type="line"/>
    </contour>
    <contour>
      <point x="643" y="378" type="curve"/>
      <point x="577" y="387" type="line"/>
      <point x="457" y="457" type="line"/>
      <point x="398" y="387" type="line"/>
      <point x="401" y="377"/>
      <point x="403" y="371"/>
      <point x="403" y="368" type="curve" smooth="yes"/>
      <point x="403" y="365"/>
      <point x="402" y="360"/>
      <point x="401" y="353" type="curve" smooth="yes"/>
      <point x="400" y="350"/>
      <point x="398" y="341"/>
      <point x="398" y="331" type="curve"/>
      <point x="351" y="278" type="line"/>
      <point x="357" y="277"/>
      <point x="362" y="277"/>
      <point x="364" y="277" type="curve" smooth="yes"/>
      <point x="384" y="277"/>
      <point x="406" y="284"/>
      <point x="447" y="301" type="curve"/>
      <point x="440" y="284"/>
      <point x="436" y="279"/>
      <point x="415" y="260" type="curve"/>
      <point x="291" y="260" type="line" smooth="yes"/>
      <point x="272" y="260"/>
      <point x="268" y="259"/>
      <point x="246" y="246" type="curve"/>
      <point x="218" y="233" type="line" smooth="yes"/>
      <point x="202" y="225"/>
      <point x="191" y="207"/>
      <point x="191" y="188" type="curve" smooth="yes"/>
      <point x="191" y="174"/>
      <point x="200" y="165"/>
      <point x="214" y="165" type="curve" smooth="yes"/>
      <point x="235" y="165" type="line"/>
      <point x="249" y="163" type="line" smooth="yes"/>
      <point x="256" y="163"/>
      <point x="264" y="174"/>
      <point x="264" y="185" type="curve" smooth="yes"/>
      <point x="264" y="195"/>
      <point x="259" y="213"/>
      <point x="254" y="219" type="curve" smooth="yes"/>
      <point x="251" y="223"/>
      <point x="249" y="226"/>
      <point x="249" y="227" type="curve" smooth="yes"/>
      <point x="248" y="228"/>
      <point x="248" y="229"/>
      <point x="247" y="229" type="curve" smooth="yes"/>
      <point x="246" y="229" type="line"/>
      <point x="246" y="229"/>
      <point x="246" y="230"/>
      <point x="247" y="230" type="curve" smooth="yes"/>
      <point x="248" y="231" type="line" smooth="yes"/>
      <point x="249" y="232"/>
      <point x="250" y="232"/>
      <point x="251" y="232" type="curve" smooth="yes"/>
      <point x="255" y="232"/>
      <point x="274" y="222"/>
      <point x="277" y="218" type="curve" smooth="yes"/>
      <point x="282" y="212"/>
      <point x="288" y="198"/>
      <point x="288" y="192" type="curve" smooth="yes"/>
      <point x="288" y="183"/>
      <point x="282" y="174"/>
      <point x="271" y="166" type="curve" smooth="yes"/>
      <point x="269" y="164"/>
      <point x="267" y="162"/>
      <point x="267" y="161" type="curve" smooth="yes"/>
      <point x="266" y="157"/>
      <point x="274" y="154"/>
      <point x="287" y="153" type="curve"/>
      <point x="297" y="151"/>
      <point x="308" y="150"/>
      <point x="319" y="148" type="curve"/>
      <point x="331" y="147" type="line" smooth="yes"/>
      <point x="341" y="147"/>
      <point x="358" y="150"/>
      <point x="381" y="155" type="curve" smooth="yes"/>
      <point x="391" y="158"/>
      <point x="417" y="162"/>
      <point x="447" y="165" type="curve"/>
      <point x="507" y="155"/>
      <point x="517" y="154"/>
      <point x="534" y="154" type="curve" smooth="yes"/>
      <point x="561" y="154"/>
      <point x="587" y="159"/>
      <point x="646" y="177" type="curve"/>
      <point x="654" y="222"/>
      <point x="656" y="244"/>
      <point x="656" y="270" type="curve" smooth="yes"/>
      <point x="656" y="301"/>
      <point x="653" y="326"/>
    </contour>
    <contour>
      <point x="231" y="326" type="line"/>
      <point x="397" y="507" type="line"/>
      <point x="368" y="530"/>
      <point x="359" y="536"/>
      <point x="351" y="536" type="curve" smooth="yes"/>
      <point x="339" y="536"/>
      <point x="286" y="505"/>
      <point x="264" y="485" type="curve" smooth="yes"/>
      <point x="189" y="419" type="line" smooth="yes"/>
      <point x="168" y="400"/>
      <point x="168" y="399"/>
      <point x="163" y="387" type="curve"/>
      <point x="137" y="298" type="line"/>
      <point x="154" y="288" type="line"/>
      <point x="163" y="260" type="line"/>
      <point x="137" y="202" type="line"/>
      <point x="154" y="202" type="line"/>
      <point x="179" y="223"/>
      <point x="198" y="246"/>
      <point x="204" y="260" type="curve" smooth="yes"/>
    </contour>
    <contour>
      <point x="85" y="83" type="curve" smooth="yes"/>
      <point x="115" y="94" type="line" smooth="yes"/>
      <point x="123" y="97"/>
      <point x="127" y="101"/>
      <point x="127" y="107" type="curve" smooth="yes"/>
      <point x="127" y="120"/>
      <point x="105" y="152"/>
      <point x="96" y="152" type="curve" smooth="yes"/>
      <point x="92" y="152"/>
      <point x="91" y="151"/>
      <point x="81" y="135" type="curve"/>
      <point x="67" y="108" type="line" smooth="yes"/>
      <point x="65" y="106"/>
      <point x="63" y="97"/>
      <point x="63" y="93" type="curve" smooth="yes"/>
      <point x="63" y="86"/>
      <point x="68" y="81"/>
      <point x="76" y="81" type="curve" smooth="yes"/>
      <point x="78" y="81"/>
      <point x="81" y="82"/>
    </contour>
    <contour>
      <point x="137" y="288" type="curve"/>
      <point x="98" y="202" type="line"/>
      <point x="103" y="201"/>
      <point x="107" y="201"/>
      <point x="110" y="201" type="curve" smooth="yes"/>
      <point x="130" y="201"/>
      <point x="145" y="228"/>
      <point x="145" y="263" type="curve" smooth="yes"/>
      <point x="145" y="275"/>
      <point x="143" y="280"/>
    </contour>
    <contour>
      <point x="381" y="371" type="curve"/>
      <point x="302" y="278" type="line"/>
      <point x="311" y="276"/>
      <point x="320" y="275"/>
      <point x="326" y="275" type="curve" smooth="yes"/>
      <point x="352" y="275"/>
      <point x="381" y="326"/>
    </contour>
    <contour>
      <point x="757" y="387" type="curve"/>
      <point x="669" y="387" type="line"/>
      <point x="679" y="316"/>
      <point x="681" y="298"/>
      <point x="681" y="272" type="curve" smooth="yes"/>
      <point x="681" y="222"/>
      <point x="674" y="172"/>
      <point x="659" y="118" type="curve"/>
      <point x="764" y="127" type="line"/>
      <point x="777" y="172"/>
      <point x="781" y="205"/>
      <point x="781" y="253" type="curve" smooth="yes"/>
      <point x="781" y="309"/>
      <point x="775" y="345"/>
    </contour>
  </outline>
</glyph>
<glyph name="a16" format="1">
  <advance width="933"/>
  <unicode hex="270F"/>
  <outline>
    <contour>
      <point x="145" y="424" type="curve" smooth="yes"/>
      <point x="170" y="424"/>
      <point x="184" y="396"/>
      <point x="184" y="346" type="curve" smooth="yes"/>
      <point x="184" y="295"/>
      <point x="170" y="267"/>
      <point x="145" y="267" type="curve" smooth="yes"/>
      <point x="120" y="267"/>
      <point x="106" y="295"/>
      <point x="106" y="346" type="curve" smooth="yes"/>
      <point x="106" y="396"/>
      <point x="120" y="424"/>
    </contour>
    <contour>
      <point x="136" y="141" type="line"/>
      <point x="35" y="259" type="line"/>
      <point x="35" y="431" type="line"/>
      <point x="136" y="550" type="line"/>
      <point x="597" y="550" type="line"/>
      <point x="620" y="549" type="line" smooth="yes"/>
      <point x="625" y="549"/>
      <point x="630" y="547"/>
      <point x="634" y="544" type="curve" smooth="yes"/>
      <point x="637" y="541"/>
      <point x="640" y="539"/>
      <point x="643" y="537" type="curve" smooth="yes"/>
      <point x="868" y="380" type="line" smooth="yes"/>
      <point x="898" y="360"/>
      <point x="899" y="358"/>
      <point x="899" y="346" type="curve" smooth="yes"/>
      <point x="899" y="333"/>
      <point x="898" y="331"/>
      <point x="868" y="311" type="curve" smooth="yes"/>
      <point x="643" y="154" type="line" smooth="yes"/>
      <point x="629" y="144"/>
      <point x="629" y="143"/>
      <point x="620" y="142" type="curve" smooth="yes"/>
      <point x="617" y="142"/>
      <point x="615" y="142"/>
      <point x="597" y="141" type="curve"/>
    </contour>
    <contour>
      <point x="227" y="268" type="line"/>
      <point x="227" y="423" type="line"/>
      <point x="145" y="521" type="line"/>
      <point x="63" y="426" type="line"/>
      <point x="63" y="264" type="line"/>
      <point x="145" y="169" type="line"/>
    </contour>
    <contour>
      <point x="647" y="192" type="curve"/>
      <point x="806" y="302" type="line"/>
      <point x="812" y="318"/>
      <point x="814" y="328"/>
      <point x="814" y="345" type="curve" smooth="yes"/>
      <point x="814" y="363"/>
      <point x="812" y="372"/>
      <point x="806" y="389" type="curve"/>
      <point x="647" y="498" type="line"/>
      <point x="675" y="437"/>
      <point x="687" y="390"/>
      <point x="687" y="346" type="curve" smooth="yes"/>
      <point x="687" y="301"/>
      <point x="674" y="252"/>
    </contour>
    <contour>
      <point x="600" y="519" type="curve"/>
      <point x="185" y="519" type="line"/>
      <point x="251" y="439" type="line"/>
      <point x="635" y="439" type="line"/>
      <point x="624" y="472"/>
      <point x="612" y="500"/>
    </contour>
    <contour>
      <point x="255" y="278" type="line"/>
      <point x="643" y="278" type="line"/>
      <point x="648" y="296"/>
      <point x="650" y="311"/>
      <point x="650" y="343" type="curve" smooth="yes"/>
      <point x="650" y="376"/>
      <point x="648" y="391"/>
      <point x="643" y="409" type="curve"/>
      <point x="255" y="409" type="line"/>
    </contour>
    <contour>
      <point x="640" y="247" type="curve"/>
      <point x="247" y="247" type="line"/>
      <point x="179" y="171" type="line"/>
      <point x="609" y="171" type="line"/>
      <point x="619" y="192"/>
      <point x="624" y="204"/>
    </contour>
  </outline>
</glyph>
<glyph name="a105" format="1">
  <advance width="911"/>
  <unicode hex="2710"/>
  <outline>
    <contour>
      <point x="153" y="264" type="curve" smooth="yes"/>
      <point x="185" y="264"/>
      <point x="222" y="214"/>
      <point x="222" y="172" type="curve" smooth="yes"/>
      <point x="222" y="151"/>
      <point x="210" y="136"/>
      <point x="194" y="136" type="curve" smooth="yes"/>
      <point x="161" y="136"/>
      <point x="122" y="187"/>
      <point x="122" y="229" type="curve" smooth="yes"/>
      <point x="122" y="248"/>
      <point x="136" y="264"/>
    </contour>
    <contour>
      <point x="265" y="49" type="line"/>
      <point x="116" y="74" type="line"/>
      <point x="35" y="209" type="line"/>
      <point x="76" y="363" type="line"/>
      <point x="510" y="622" type="line" smooth="yes"/>
      <point x="525" y="631"/>
      <point x="545" y="636"/>
      <point x="563" y="636" type="curve" smooth="yes"/>
      <point x="840" y="636" type="line" smooth="yes"/>
      <point x="864" y="636"/>
      <point x="876" y="628"/>
      <point x="876" y="612" type="curve" smooth="yes"/>
      <point x="876" y="607"/>
      <point x="874" y="602"/>
      <point x="868" y="592" type="curve" smooth="yes"/>
      <point x="726" y="343" type="line" smooth="yes"/>
      <point x="715" y="322"/>
      <point x="711" y="318"/>
      <point x="694" y="309" type="curve" smooth="yes"/>
      <point x="690" y="306"/>
      <point x="685" y="304"/>
      <point x="684" y="303" type="curve" smooth="yes"/>
    </contour>
    <contour>
      <point x="257" y="74" type="line"/>
      <point x="291" y="192" type="line"/>
      <point x="218" y="315" type="line"/>
      <point x="97" y="341" type="line"/>
      <point x="64" y="211" type="line"/>
      <point x="133" y="97" type="line"/>
    </contour>
    <contour>
      <point x="713" y="373" type="curve"/>
      <point x="794" y="510" type="line"/>
      <point x="815" y="542"/>
      <point x="816" y="543"/>
      <point x="816" y="553" type="curve" smooth="yes"/>
      <point x="816" y="565"/>
      <point x="800" y="592"/>
      <point x="784" y="604" type="curve" smooth="yes"/>
      <point x="780" y="608"/>
      <point x="763" y="612"/>
      <point x="752" y="612" type="curve" smooth="yes"/>
      <point x="571" y="612" type="line"/>
      <point x="665" y="549"/>
      <point x="705" y="481"/>
    </contour>
    <contour>
      <point x="290" y="91" type="line"/>
      <point x="684" y="330" type="line"/>
      <point x="687" y="347"/>
      <point x="688" y="356"/>
      <point x="688" y="369" type="curve" smooth="yes"/>
      <point x="688" y="384"/>
      <point x="687" y="393"/>
      <point x="684" y="413" type="curve"/>
      <point x="318" y="195" type="line"/>
    </contour>
    <contour>
      <point x="306" y="215" type="line"/>
      <point x="674" y="437" type="line"/>
      <point x="671" y="464"/>
      <point x="635" y="524"/>
      <point x="612" y="541" type="curve"/>
      <point x="243" y="319" type="line"/>
    </contour>
    <contour>
      <point x="231" y="339" type="line"/>
      <point x="595" y="559" type="line"/>
      <point x="579" y="578"/>
      <point x="547" y="606"/>
      <point x="534" y="612" type="curve"/>
      <point x="120" y="361" type="line"/>
    </contour>
  </outline>
</glyph>
<glyph name="a21" format="1">
  <advance width="762"/>
  <unicode hex="2715"/>
  <outline>
    <contour>
      <point x="727" y="633" type="line"/>
      <point x="439" y="347" type="line"/>
      <point x="727" y="59" type="line"/>
      <point x="668" y="0" type="line"/>
      <point x="381" y="289" type="line"/>
      <point x="94" y="0" type="line"/>
      <point x="35" y="59" type="line"/>
      <point x="323" y="347" type="line"/>
      <point x="35" y="633" type="line"/>
      <point x="94" y="692" type="line"/>
      <point x="381" y="404" type="line"/>
      <point x="668" y="692" type="line"/>
    </contour>
  </outline>
</glyph>
<glyph name="a22" format="1">
  <advance width="761"/>
  <unicode hex="2716"/>
  <outline>
    <contour>
      <point x="727" y="518" type="line"/>
      <point x="553" y="347" type="line"/>
      <point x="727" y="174" type="line"/>
      <point x="553" y="0" type="line"/>
      <point x="381" y="174" type="line"/>
      <point x="209" y="0" type="line"/>
      <point x="35" y="174" type="line"/>
      <point x="209" y="347" type="line"/>
      <point x="35" y="518" type="line"/>
      <point x="209" y="692" type="line"/>
      <point x="381" y="518" type="line"/>
      <point x="553" y="692" type="line"/>
    </contour>
  </outline>
</glyph>
<glyph name="a25" format="1">
  <advance width="763"/>
  <unicode hex="2719"/>
  <outline>
    <contour>
      <point x="428" y="624" type="line"/>
      <point x="428" y="393" type="line"/>
      <point x="658" y="393" type="line"/>
      <point x="658" y="301" type="line"/>
      <point x="428" y="301" type="line"/>
      <point x="428" y="71" type="line"/>
      <point x="336" y="71" type="line"/>
      <point x="336" y="301" type="line"/>
      <point x="105" y="301" type="line"/>
      <point x="105" y="393" type="line"/>
      <point x="336" y="393" type="line"/>
      <point x="336" y="624" type="line"/>
    </contour>
    <contour>
      <point x="497" y="694" type="line"/>
      <point x="497" y="463" type="line"/>
      <point x="728" y="463" type="line"/>
      <point x="728" y="232" type="line"/>
      <point x="497" y="232" type="line"/>
      <point x="497" y="0" type="line"/>
      <point x="266" y="0" type="line"/>
      <point x="266" y="232" type="line"/>
      <point x="35" y="232" type="line"/>
      <point x="35" y="463" type="line"/>
      <point x="266" y="463" type="line"/>
      <point x="266" y="694" type="line"/>
    </contour>
    <contour>
      <point x="462" y="659" type="line"/>
      <point x="301" y="659" type="line"/>
      <point x="301" y="428" type="line"/>
      <point x="70" y="428" type="line"/>
      <point x="70" y="267" type="line"/>
      <point x="301" y="267" type="line"/>
      <point x="301" y="35" type="line"/>
      <point x="462" y="35" type="line"/>
      <point x="462" y="267" type="line"/>
      <point x="693" y="267" type="line"/>
      <point x="693" y="428" type="line"/>
      <point x="462" y="428" type="line"/>
    </contour>
  </outline>
</glyph>
<glyph name="a26" format="1">
  <advance width="760"/>
  <unicode hex="271A"/>
  <outline>
    <contour>
      <point x="496" y="691" type="line"/>
      <point x="496" y="461" type="line"/>
      <point x="726" y="461" type="line"/>
      <point x="726" y="230" type="line"/>
      <point x="496" y="230" type="line"/>
      <point x="496" y="0" type="line"/>
      <point x="265" y="0" type="line"/>
      <point x="265" y="230" type="line"/>
      <point x="35" y="230" type="line"/>
      <point x="35" y="461" type="line"/>
      <point x="265" y="461" type="line"/>
      <point x="265" y="691" type="line"/>
    </contour>
  </outline>
</glyph>
<glyph name="a27" format="1">
  <advance width="759"/>
  <unicode hex="271B"/>
  <outline>
    <contour>
      <point x="325" y="0" type="line"/>
      <point x="325" y="290" type="line"/>
      <point x="435" y="290" type="line"/>
      <point x="435" y="0" type="line"/>
    </contour>
    <contour>
      <point x="325" y="400" type="line"/>
      <point x="325" y="690" type="line"/>
      <point x="435" y="690" type="line"/>
      <point x="435" y="400" type="line"/>
    </contour>
    <contour>
      <point x="35" y="400" type="line"/>
      <point x="325" y="400" type="line"/>
      <point x="325" y="290" type="line"/>
      <point x="35" y="290" type="line"/>
    </contour>
    <contour>
      <point x="435" y="400" type="line"/>
      <point x="725" y="400" type="line"/>
      <point x="725" y="290" type="line"/>
      <point x="435" y="290" type="line"/>
    </contour>
  </outline>
</glyph>
<glyph name="a28" format="1">
  <advance width="754"/>
  <unicode hex="271C"/>
  <outline>
    <contour>
      <point x="273" y="0" type="line"/>
      <point x="273" y="238" type="line"/>
      <point x="482" y="238" type="line"/>
      <point x="482" y="0" type="line"/>
    </contour>
    <contour>
      <point x="273" y="447" type="line"/>
      <point x="273" y="685" type="line"/>
      <point x="482" y="685" type="line"/>
      <point x="482" y="447" type="line"/>
    </contour>
    <contour>
      <point x="35" y="447" type="line"/>
      <point x="273" y="447" type="line"/>
      <point x="273" y="238" type="line"/>
      <point x="35" y="238" type="line"/>
    </contour>
    <contour>
      <point x="482" y="447" type="line"/>
      <point x="720" y="447" type="line"/>
      <point x="720" y="238" type="line"/>
      <point x="482" y="238" type="line"/>
    </contour>
  </outline>
</glyph>
<glyph name="a6" format="1">
  <advance width="494"/>
  <unicode hex="271D"/>
  <outline>
    <contour>
      <point x="202" y="691" type="line"/>
      <point x="293" y="691" type="line"/>
      <point x="293" y="510" type="line"/>
      <point x="460" y="510" type="line"/>
      <point x="460" y="419" type="line"/>
      <point x="293" y="419" type="line"/>
      <point x="293" y="0" type="line"/>
      <point x="202" y="0" type="line"/>
      <point x="202" y="419" type="line"/>
      <point x="35" y="419" type="line"/>
      <point x="35" y="510" type="line"/>
      <point x="202" y="510" type="line"/>
    </contour>
  </outline>
</glyph>
<glyph name="a7" format="1">
  <advance width="552"/>
  <unicode hex="271E"/>
  <outline>
    <contour>
      <point x="181" y="691" type="line"/>
      <point x="298" y="691" type="line"/>
      <point x="374" y="620" type="line"/>
      <point x="374" y="543" type="line"/>
      <point x="439" y="543" type="line"/>
      <point x="517" y="474" type="line"/>
      <point x="517" y="350" type="line"/>
      <point x="374" y="350" type="line"/>
      <point x="374" y="0" type="line"/>
      <point x="267" y="0" type="line"/>
      <point x="181" y="71" type="line"/>
      <point x="181" y="350" type="line"/>
      <point x="125" y="350" type="line"/>
      <point x="35" y="426" type="line"/>
      <point x="35" y="543" type="line"/>
      <point x="181" y="543" type="line"/>
    </contour>
    <contour>
      <point x="205" y="667" type="line"/>
      <point x="205" y="519" type="line"/>
      <point x="59" y="519" type="line"/>
      <point x="59" y="426" type="line"/>
      <point x="205" y="426" type="line"/>
      <point x="205" y="71" type="line"/>
      <point x="298" y="71" type="line"/>
      <point x="298" y="426" type="line"/>
      <point x="439" y="426" type="line"/>
      <point x="439" y="519" type="line"/>
      <point x="298" y="519" type="line"/>
      <point x="298" y="667" type="line"/>
    </contour>
  </outline>
</glyph>
<glyph name="a8" format="1">
  <advance width="537"/>
  <unicode hex="271F"/>
  <outline>
    <contour>
      <point x="225" y="641" type="line"/>
      <point x="316" y="641" type="line"/>
      <point x="316" y="489" type="line"/>
      <point x="453" y="489" type="line"/>
      <point x="453" y="404" type="line"/>
      <point x="316" y="404" type="line"/>
      <point x="316" y="50" type="line"/>
      <point x="225" y="50" type="line"/>
      <point x="225" y="404" type="line"/>
      <point x="85" y="404" type="line"/>
      <point x="85" y="489" type="line"/>
      <point x="225" y="489" type="line"/>
    </contour>
    <contour>
      <point x="175" y="691" type="line"/>
      <point x="366" y="691" type="line"/>
      <point x="366" y="539" type="line"/>
      <point x="503" y="539" type="line"/>
      <point x="503" y="354" type="line"/>
      <point x="366" y="354" type="line"/>
      <point x="366" y="0" type="line"/>
      <point x="175" y="0" type="line"/>
      <point x="175" y="354" type="line"/>
      <point x="35" y="354" type="line"/>
      <point x="35" y="539" type="line"/>
      <point x="175" y="539" type="line"/>
    </contour>
    <contour>
      <point x="200" y="666" type="line"/>
      <point x="200" y="514" type="line"/>
      <point x="60" y="514" type="line"/>
      <point x="60" y="379" type="line"/>
      <point x="200" y="379" type="line"/>
      <point x="200" y="25" type="line"/>
      <point x="341" y="25" type="line"/>
      <point x="341" y="379" type="line"/>
      <point x="478" y="379" type="line"/>
      <point x="478" y="514" type="line"/>
      <point x="341" y="514" type="line"/>
      <point x="341" y="666" type="line"/>
    </contour>
  </outline>
</glyph>
<glyph name="a31" format="1">
  <advance width="788"/>
  <unicode hex="2724"/>
  <outline>
    <contour>
      <point x="379" y="323" type="curve" smooth="yes"/>
      <point x="379" y="330" type="line"/>
      <point x="331" y="323"/>
      <point x="320" y="317"/>
      <point x="262" y="258" type="curve" smooth="yes"/>
      <point x="233" y="228"/>
      <point x="204" y="215"/>
      <point x="167" y="215" type="curve" smooth="yes"/>
      <point x="96" y="215"/>
      <point x="35" y="276"/>
      <point x="35" y="347" type="curve" smooth="yes"/>
      <point x="35" y="417"/>
      <point x="95" y="476"/>
      <point x="165" y="476" type="curve" smooth="yes"/>
      <point x="203" y="476"/>
      <point x="235" y="461"/>
      <point x="266" y="430" type="curve" smooth="yes"/>
      <point x="324" y="370"/>
      <point x="335" y="363"/>
      <point x="379" y="363" type="curve"/>
      <point x="378" y="397"/>
      <point x="361" y="426"/>
      <point x="321" y="466" type="curve" smooth="yes"/>
      <point x="280" y="506"/>
      <point x="265" y="535"/>
      <point x="265" y="577" type="curve" smooth="yes"/>
      <point x="265" y="647"/>
      <point x="324" y="705"/>
      <point x="395" y="705" type="curve" smooth="yes"/>
      <point x="466" y="705"/>
      <point x="525" y="647"/>
      <point x="525" y="576" type="curve" smooth="yes"/>
      <point x="525" y="535"/>
      <point x="509" y="503"/>
      <point x="470" y="467" type="curve" smooth="yes"/>
      <point x="426" y="426"/>
      <point x="416" y="407"/>
      <point x="412" y="363" type="curve"/>
      <point x="451" y="363"/>
      <point x="482" y="383"/>
      <point x="527" y="434" type="curve" smooth="yes"/>
      <point x="552" y="461"/>
      <point x="588" y="477"/>
      <point x="624" y="477" type="curve" smooth="yes"/>
      <point x="695" y="477"/>
      <point x="753" y="418"/>
      <point x="753" y="346" type="curve" smooth="yes"/>
      <point x="753" y="274"/>
      <point x="696" y="217"/>
      <point x="624" y="217" type="curve" smooth="yes"/>
      <point x="582" y="217"/>
      <point x="553" y="232"/>
      <point x="514" y="272" type="curve"/>
      <point x="472" y="317"/>
      <point x="448" y="330"/>
      <point x="412" y="330" type="curve"/>
      <point x="412" y="291"/>
      <point x="433" y="259"/>
      <point x="487" y="209" type="curve" smooth="yes"/>
      <point x="512" y="185"/>
      <point x="527" y="150"/>
      <point x="527" y="116" type="curve" smooth="yes"/>
      <point x="527" y="44"/>
      <point x="469" y="-14"/>
      <point x="397" y="-14" type="curve" smooth="yes"/>
      <point x="327" y="-14"/>
      <point x="267" y="45"/>
      <point x="267" y="116" type="curve" smooth="yes"/>
      <point x="267" y="159"/>
      <point x="281" y="184"/>
      <point x="325" y="226" type="curve" smooth="yes"/>
      <point x="361" y="259"/>
      <point x="379" y="292"/>
    </contour>
  </outline>
</glyph>
<glyph name="a38" format="1">
  <advance width="841"/>
  <unicode hex="272B"/>
  <outline>
    <contour>
      <point x="413" y="706" type="line"/>
      <point x="495" y="414" type="line"/>
      <point x="807" y="426" type="line"/>
      <point x="542" y="270" type="line"/>
      <point x="655" y="-14" type="line"/>
      <point x="413" y="177" type="line"/>
      <point x="181" y="-14" type="line"/>
      <point x="285" y="270" type="line"/>
      <point x="35" y="426" type="line"/>
      <point x="330" y="414" type="line"/>
    </contour>
    <contour>
      <point x="416" y="419" type="curve" smooth="yes"/>
      <point x="355" y="419"/>
      <point x="307" y="372"/>
      <point x="307" y="313" type="curve" smooth="yes"/>
      <point x="307" y="253"/>
      <point x="355" y="205"/>
      <point x="414" y="205" type="curve" smooth="yes"/>
      <point x="473" y="205"/>
      <point x="521" y="253"/>
      <point x="521" y="312" type="curve" smooth="yes"/>
      <point x="521" y="370"/>
      <point x="473" y="419"/>
    </contour>
  </outline>
</glyph>
<glyph name="a40" format="1">
  <advance width="833"/>
  <unicode hex="272D"/>
  <outline>
    <contour>
      <point x="417" y="551" type="line"/>
      <point x="486" y="373" type="line"/>
      <point x="632" y="373" type="line"/>
      <point x="510" y="281" type="line"/>
      <point x="565" y="117" type="line"/>
      <point x="417" y="216" type="line"/>
      <point x="266" y="117" type="line"/>
      <point x="311" y="281" type="line"/>
      <point x="195" y="373" type="line"/>
      <point x="350" y="373" type="line"/>
    </contour>
    <contour>
      <point x="417" y="706" type="line"/>
      <point x="524" y="428" type="line"/>
      <point x="798" y="428" type="line"/>
      <point x="576" y="261" type="line"/>
      <point x="666" y="-14" type="line"/>
      <point x="417" y="149" type="line"/>
      <point x="171" y="-14" type="line"/>
      <point x="248" y="261" type="line"/>
      <point x="35" y="428" type="line"/>
      <point x="312" y="428" type="line"/>
    </contour>
    <contour>
      <point x="417" y="632" type="line"/>
      <point x="329" y="404" type="line"/>
      <point x="111" y="404" type="line"/>
      <point x="279" y="271" type="line"/>
      <point x="218" y="51" type="line"/>
      <point x="417" y="181" type="line"/>
      <point x="615" y="51" type="line"/>
      <point x="545" y="271" type="line"/>
      <point x="721" y="404" type="line"/>
      <point x="506" y="404" type="line"/>
    </contour>
  </outline>
</glyph>
<glyph name="a41" format="1">
  <advance width="816"/>
  <unicode hex="272E"/>
  <outline>
    <contour>
      <point x="410" y="489" type="line"/>
      <point x="455" y="372" type="line"/>
      <point x="575" y="372" type="line"/>
      <point x="482" y="301" type="line"/>
      <point x="516" y="171" type="line"/>
      <point x="410" y="248" type="line"/>
      <point x="300" y="171" type="line"/>
      <point x="337" y="301" type="line"/>
      <point x="249" y="372" type="line"/>
      <point x="365" y="372" type="line"/>
    </contour>
    <contour>
      <point x="520" y="462" type="line"/>
      <point x="774" y="435" type="line" smooth="yes"/>
      <point x="779" y="435"/>
      <point x="782" y="433"/>
      <point x="782" y="429" type="curve" smooth="yes"/>
      <point x="782" y="427"/>
      <point x="780" y="424"/>
      <point x="778" y="422" type="curve" smooth="yes"/>
      <point x="585" y="266" type="line"/>
      <point x="644" y="-3" type="line"/>
      <point x="645" y="-6" type="line" smooth="yes"/>
      <point x="645" y="-9"/>
      <point x="642" y="-13"/>
      <point x="639" y="-13" type="curve" smooth="yes"/>
      <point x="637" y="-13"/>
      <point x="635" y="-12"/>
      <point x="633" y="-11" type="curve" smooth="yes"/>
      <point x="410" y="136" type="line"/>
      <point x="184" y="-7" type="line" smooth="yes"/>
      <point x="183" y="-8"/>
      <point x="180" y="-9"/>
      <point x="179" y="-9" type="curve" smooth="yes"/>
      <point x="176" y="-9"/>
      <point x="174" y="-6"/>
      <point x="173" y="-3" type="curve"/>
      <point x="173" y="1" type="line"/>
      <point x="234" y="266" type="line"/>
      <point x="39" y="422" type="line" smooth="yes"/>
      <point x="37" y="424"/>
      <point x="35" y="427"/>
      <point x="35" y="428" type="curve" smooth="yes"/>
      <point x="35" y="432"/>
      <point x="38" y="435"/>
      <point x="43" y="435" type="curve" smooth="yes"/>
      <point x="301" y="462" type="line"/>
      <point x="403" y="700" type="line" smooth="yes"/>
      <point x="405" y="703"/>
      <point x="407" y="705"/>
      <point x="410" y="705" type="curve" smooth="yes"/>
      <point x="414" y="705"/>
      <point x="416" y="704"/>
      <point x="417" y="700" type="curve" smooth="yes"/>
    </contour>
    <contour>
      <point x="410" y="595" type="line"/>
      <point x="338" y="412" type="line"/>
      <point x="147" y="400" type="line"/>
      <point x="292" y="287" type="line"/>
      <point x="239" y="82" type="line"/>
      <point x="410" y="198" type="line"/>
      <point x="577" y="82" type="line"/>
      <point x="527" y="287" type="line"/>
      <point x="674" y="400" type="line"/>
      <point x="484" y="412" type="line"/>
    </contour>
  </outline>
</glyph>
<glyph name="a42" format="1">
  <advance width="831"/>
  <unicode hex="272F"/>
  <outline>
    <contour>
      <point x="420" y="707" type="line"/>
      <point x="515" y="433" type="line"/>
      <point x="796" y="433" type="line"/>
      <point x="575" y="268" type="line"/>
      <point x="677" y="-13" type="line"/>
      <point x="420" y="163" type="line"/>
      <point x="171" y="-13" type="line"/>
      <point x="267" y="268" type="line"/>
      <point x="35" y="433" type="line"/>
      <point x="323" y="433" type="line"/>
    </contour>
    <contour>
      <point x="338" y="414" type="line"/>
      <point x="420" y="316" type="line"/>
      <point x="420" y="655" type="line"/>
    </contour>
    <contour>
      <point x="498" y="414" type="line"/>
      <point x="420" y="316" type="line"/>
      <point x="741" y="414" type="line"/>
    </contour>
    <contour>
      <point x="553" y="268" type="line"/>
      <point x="420" y="316" type="line"/>
      <point x="642" y="32" type="line"/>
    </contour>
    <contour>
      <point x="420" y="185" type="line"/>
      <point x="420" y="315" type="line"/>
      <point x="208" y="32" type="line"/>
    </contour>
    <contour>
      <point x="291" y="268" type="line"/>
      <point x="420" y="316" type="line"/>
      <point x="88" y="414" type="line"/>
    </contour>
  </outline>
</glyph>
<glyph name="a43" format="1">
  <advance width="923"/>
  <unicode hex="2730"/>
  <outline>
    <contour>
      <point x="407" y="706" type="line"/>
      <point x="530" y="687" type="line"/>
      <point x="612" y="442" type="line"/>
      <point x="825" y="442" type="line"/>
      <point x="888" y="423" type="line"/>
      <point x="673" y="269" type="line"/>
      <point x="763" y="10" type="line"/>
      <point x="630" y="10" type="line"/>
      <point x="484" y="117" type="line"/>
      <point x="306" y="-13" type="line"/>
      <point x="175" y="10" type="line"/>
      <point x="261" y="269" type="line"/>
      <point x="35" y="442" type="line"/>
      <point x="319" y="442" type="line"/>
    </contour>
    <contour>
      <point x="416" y="669" type="line"/>
      <point x="335" y="423" type="line"/>
      <point x="97" y="423" type="line"/>
      <point x="287" y="282" type="line"/>
      <point x="206" y="43" type="line"/>
      <point x="416" y="195" type="line"/>
      <point x="617" y="43" type="line"/>
      <point x="542" y="282" type="line"/>
      <point x="745" y="423" type="line"/>
      <point x="498" y="423" type="line"/>
    </contour>
  </outline>
</glyph>
<glyph name="a44" format="1">
  <advance width="744"/>
  <unicode hex="2731"/>
  <outline>
    <contour>
      <point x="448" y="691" type="line"/>
      <point x="448" y="468" type="line"/>
      <point x="632" y="586" type="line"/>
      <point x="710" y="453" type="line"/>
      <point x="513" y="344" type="line"/>
      <point x="710" y="234" type="line"/>
      <point x="632" y="102" type="line"/>
      <point x="448" y="219" type="line"/>
      <point x="448" y="0" type="line"/>
      <point x="298" y="0" type="line"/>
      <point x="298" y="219" type="line"/>
      <point x="113" y="102" type="line"/>
      <point x="35" y="234" type="line"/>
      <point x="232" y="344" type="line"/>
      <point x="35" y="453" type="line"/>
      <point x="113" y="586" type="line"/>
      <point x="298" y="468" type="line"/>
      <point x="298" y="691" type="line"/>
    </contour>
  </outline>
</glyph>
<glyph name="a45" format="1">
  <advance width="723"/>
  <unicode hex="2732"/>
  <outline>
    <contour>
      <point x="416" y="691" type="line"/>
      <point x="416" y="448" type="line"/>
      <point x="307" y="448" type="line"/>
      <point x="307" y="691" type="line"/>
    </contour>
    <contour>
      <point x="307" y="0" type="line"/>
      <point x="307" y="243" type="line"/>
      <point x="416" y="243" type="line"/>
      <point x="416" y="0" type="line"/>
    </contour>
    <contour>
      <point x="688" y="471" type="line"/>
      <point x="477" y="349" type="line"/>
      <point x="423" y="444" type="line"/>
      <point x="633" y="566" type="line"/>
    </contour>
    <contour>
      <point x="35" y="220" type="line"/>
      <point x="246" y="342" type="line"/>
      <point x="300" y="247" type="line"/>
      <point x="90" y="125" type="line"/>
    </contour>
    <contour>
      <point x="90" y="566" type="line"/>
      <point x="300" y="444" type="line"/>
      <point x="246" y="349" type="line"/>
      <point x="35" y="471" type="line"/>
    </contour>
    <contour>
      <point x="633" y="125" type="line"/>
      <point x="423" y="247" type="line"/>
      <point x="477" y="342" type="line"/>
      <point x="688" y="220" type="line"/>
    </contour>
  </outline>
</glyph>
<glyph name="a47" format="1">
  <advance width="790"/>
  <unicode hex="2734"/>
  <outline>
    <contour>
      <point x="358" y="421" type="line"/>
      <point x="380" y="702" type="line" smooth="yes"/>
      <point x="380" y="704"/>
      <point x="383" y="706"/>
      <point x="386" y="706" type="curve" smooth="yes"/>
      <point x="390" y="706"/>
      <point x="393" y="703"/>
      <point x="393" y="699" type="curve" smooth="yes"/>
      <point x="422" y="421" type="line"/>
      <point x="641" y="607" type="line" smooth="yes"/>
      <point x="641" y="608"/>
      <point x="643" y="608"/>
      <point x="644" y="608" type="curve" smooth="yes"/>
      <point x="648" y="608"/>
      <point x="652" y="605"/>
      <point x="652" y="602" type="curve" smooth="yes"/>
      <point x="652" y="600"/>
      <point x="651" y="597"/>
      <point x="649" y="595" type="curve" smooth="yes"/>
      <point x="469" y="377" type="line"/>
      <point x="751" y="355" type="line" smooth="yes"/>
      <point x="754" y="355"/>
      <point x="756" y="352"/>
      <point x="756" y="348" type="curve" smooth="yes"/>
      <point x="756" y="344"/>
      <point x="753" y="341"/>
      <point x="749" y="340" type="curve" smooth="yes"/>
      <point x="469" y="314" type="line"/>
      <point x="642" y="99" type="line"/>
      <point x="643" y="95" type="line" smooth="yes"/>
      <point x="643" y="92"/>
      <point x="640" y="88"/>
      <point x="637" y="88" type="curve" smooth="yes"/>
      <point x="636" y="88"/>
      <point x="633" y="89"/>
      <point x="631" y="91" type="curve" smooth="yes"/>
      <point x="422" y="269" type="line"/>
      <point x="400" y="-10" type="line" smooth="yes"/>
      <point x="400" y="-12"/>
      <point x="396" y="-15"/>
      <point x="393" y="-15" type="curve" smooth="yes"/>
      <point x="389" y="-15"/>
      <point x="386" y="-12"/>
      <point x="386" y="-7" type="curve" smooth="yes"/>
      <point x="358" y="269" type="line"/>
      <point x="143" y="91" type="line" smooth="yes"/>
      <point x="142" y="90"/>
      <point x="140" y="89"/>
      <point x="139" y="89" type="curve" smooth="yes"/>
      <point x="135" y="89"/>
      <point x="131" y="93"/>
      <point x="131" y="96" type="curve" smooth="yes"/>
      <point x="131" y="98"/>
      <point x="132" y="100"/>
      <point x="135" y="103" type="curve" smooth="yes"/>
      <point x="312" y="314" type="line"/>
      <point x="39" y="335" type="line" smooth="yes"/>
      <point x="36" y="336"/>
      <point x="34" y="339"/>
      <point x="34" y="342" type="curve" smooth="yes"/>
      <point x="34" y="346"/>
      <point x="37" y="349"/>
      <point x="41" y="349" type="curve" smooth="yes"/>
      <point x="312" y="377" type="line"/>
      <point x="132" y="592" type="line" smooth="yes"/>
      <point x="131" y="593"/>
      <point x="131" y="594"/>
      <point x="131" y="596" type="curve" smooth="yes"/>
      <point x="131" y="599"/>
      <point x="134" y="603"/>
      <point x="137" y="603" type="curve" smooth="yes"/>
      <point x="139" y="603"/>
      <point x="141" y="602"/>
      <point x="143" y="600" type="curve" smooth="yes"/>
    </contour>
  </outline>
</glyph>
<glyph name="a49" format="1">
  <advance width="695"/>
  <unicode hex="2736"/>
  <outline>
    <contour>
      <point x="466" y="345" type="line"/>
      <point x="658" y="171" type="line" smooth="yes"/>
      <point x="660" y="170"/>
      <point x="661" y="168"/>
      <point x="661" y="167" type="curve" smooth="yes"/>
      <point x="661" y="164"/>
      <point x="658" y="162"/>
      <point x="656" y="162" type="curve" smooth="yes"/>
      <point x="656" y="162"/>
      <point x="655" y="162"/>
      <point x="653" y="163" type="curve" smooth="yes"/>
      <point x="407" y="243" type="line"/>
      <point x="353" y="-11" type="line" smooth="yes"/>
      <point x="352" y="-14"/>
      <point x="351" y="-16"/>
      <point x="348" y="-16" type="curve" smooth="yes"/>
      <point x="346" y="-16"/>
      <point x="344" y="-14"/>
      <point x="343" y="-11" type="curve" smooth="yes"/>
      <point x="289" y="243" type="line"/>
      <point x="43" y="163" type="line" smooth="yes"/>
      <point x="41" y="162"/>
      <point x="40" y="162"/>
      <point x="40" y="162" type="curve" smooth="yes"/>
      <point x="38" y="162"/>
      <point x="35" y="164"/>
      <point x="35" y="167" type="curve" smooth="yes"/>
      <point x="35" y="168"/>
      <point x="36" y="170"/>
      <point x="38" y="171" type="curve" smooth="yes"/>
      <point x="230" y="345" type="line"/>
      <point x="38" y="518" type="line" smooth="yes"/>
      <point x="36" y="520"/>
      <point x="35" y="522"/>
      <point x="35" y="523" type="curve" smooth="yes"/>
      <point x="35" y="526"/>
      <point x="38" y="528"/>
      <point x="40" y="528" type="curve" smooth="yes"/>
      <point x="40" y="528"/>
      <point x="41" y="528"/>
      <point x="43" y="527" type="curve" smooth="yes"/>
      <point x="289" y="447" type="line"/>
      <point x="343" y="700" type="line" smooth="yes"/>
      <point x="344" y="704"/>
      <point x="346" y="706"/>
      <point x="348" y="706" type="curve" smooth="yes"/>
      <point x="350" y="706"/>
      <point x="352" y="704"/>
      <point x="353" y="700" type="curve" smooth="yes"/>
      <point x="407" y="447" type="line"/>
      <point x="653" y="527" type="line"/>
      <point x="656" y="528" type="line" smooth="yes"/>
      <point x="658" y="528"/>
      <point x="661" y="526"/>
      <point x="661" y="523" type="curve" smooth="yes"/>
      <point x="661" y="522"/>
      <point x="660" y="520"/>
      <point x="658" y="518" type="curve" smooth="yes"/>
    </contour>
  </outline>
</glyph>
<glyph name="a51" format="1">
  <advance width="768"/>
  <unicode hex="2738"/>
  <outline>
    <contour>
      <point x="531" y="699" type="line"/>
      <point x="517" y="481" type="line"/>
      <point x="734" y="497" type="line"/>
      <point x="567" y="350" type="line"/>
      <point x="734" y="204" type="line"/>
      <point x="517" y="219" type="line"/>
      <point x="531" y="-7" type="line"/>
      <point x="383" y="162" type="line"/>
      <point x="238" y="-7" type="line"/>
      <point x="252" y="219" type="line"/>
      <point x="35" y="204" type="line"/>
      <point x="203" y="350" type="line"/>
      <point x="35" y="497" type="line"/>
      <point x="252" y="481" type="line"/>
      <point x="238" y="699" type="line"/>
      <point x="383" y="530" type="line"/>
    </contour>
  </outline>
</glyph>
<glyph name="a53" format="1">
  <advance width="759"/>
  <unicode hex="273A"/>
  <outline>
    <contour>
      <point x="364" y="693" type="line"/>
      <point x="397" y="693" type="line"/>
      <point x="397" y="424" type="line"/>
      <point x="493" y="674" type="line"/>
      <point x="528" y="660" type="line"/>
      <point x="422" y="412" type="line"/>
      <point x="610" y="605" type="line"/>
      <point x="637" y="578" type="line"/>
      <point x="444" y="389" type="line"/>
      <point x="692" y="496" type="line"/>
      <point x="706" y="461" type="line"/>
      <point x="456" y="362" type="line"/>
      <point x="725" y="362" type="line"/>
      <point x="725" y="329" type="line"/>
      <point x="456" y="329" type="line"/>
      <point x="706" y="232" type="line"/>
      <point x="692" y="196" type="line"/>
      <point x="444" y="306" type="line"/>
      <point x="637" y="115" type="line"/>
      <point x="610" y="88" type="line"/>
      <point x="422" y="285" type="line"/>
      <point x="528" y="34" type="line"/>
      <point x="493" y="20" type="line"/>
      <point x="397" y="274" type="line"/>
      <point x="397" y="0" type="line"/>
      <point x="364" y="0" type="line"/>
      <point x="364" y="274" type="line"/>
      <point x="267" y="20" type="line"/>
      <point x="231" y="34" type="line"/>
      <point x="337" y="285" type="line"/>
      <point x="150" y="88" type="line"/>
      <point x="123" y="115" type="line"/>
      <point x="318" y="306" type="line"/>
      <point x="68" y="196" type="line"/>
      <point x="54" y="232" type="line"/>
      <point x="308" y="329" type="line"/>
      <point x="35" y="329" type="line"/>
      <point x="35" y="362" type="line"/>
      <point x="308" y="362" type="line"/>
      <point x="54" y="461" type="line"/>
      <point x="68" y="496" type="line"/>
      <point x="318" y="389" type="line"/>
      <point x="123" y="578" type="line"/>
      <point x="150" y="605" type="line"/>
      <point x="337" y="412" type="line"/>
      <point x="231" y="660" type="line"/>
      <point x="267" y="674" type="line"/>
      <point x="364" y="424" type="line"/>
    </contour>
  </outline>
</glyph>
<glyph name="a61" format="1">
  <advance width="789"/>
  <unicode hex="2742"/>
  <outline>
    <contour>
      <point x="399" y="704" type="curve" smooth="yes"/>
      <point x="593" y="704"/>
      <point x="754" y="541"/>
      <point x="754" y="345" type="curve" smooth="yes"/>
      <point x="754" y="147"/>
      <point x="593" y="-14"/>
      <point x="395" y="-14" type="curve" smooth="yes"/>
      <point x="197" y="-14"/>
      <point x="35" y="147"/>
      <point x="35" y="344" type="curve" smooth="yes"/>
      <point x="35" y="545"/>
      <point x="196" y="704"/>
    </contour>
    <contour>
      <point x="394" y="695" type="line"/>
      <point x="326" y="531" type="line"/>
      <point x="351" y="540"/>
      <point x="369" y="543"/>
      <point x="394" y="543" type="curve" smooth="yes"/>
      <point x="420" y="543"/>
      <point x="438" y="540"/>
      <point x="463" y="531" type="curve"/>
    </contour>
    <contour>
      <point x="394" y="-4" type="line"/>
      <point x="463" y="160" type="line"/>
      <point x="439" y="150"/>
      <point x="420" y="147"/>
      <point x="395" y="147" type="curve" smooth="yes"/>
      <point x="369" y="147"/>
      <point x="350" y="150"/>
      <point x="326" y="160" type="curve"/>
    </contour>
    <contour>
      <point x="642" y="592" type="line"/>
      <point x="477" y="525" type="line"/>
      <point x="517" y="508"/>
      <point x="557" y="468"/>
      <point x="574" y="428" type="curve"/>
    </contour>
    <contour>
      <point x="147" y="98" type="line"/>
      <point x="312" y="165" type="line"/>
      <point x="272" y="182"/>
      <point x="232" y="222"/>
      <point x="215" y="263" type="curve"/>
    </contour>
    <contour>
      <point x="744" y="345" type="line"/>
      <point x="580" y="414" type="line"/>
      <point x="589" y="390"/>
      <point x="592" y="372"/>
      <point x="592" y="345" type="curve" smooth="yes"/>
      <point x="592" y="319"/>
      <point x="589" y="300"/>
      <point x="580" y="276" type="curve"/>
    </contour>
    <contour>
      <point x="45" y="345" type="line"/>
      <point x="209" y="276" type="line"/>
      <point x="200" y="300"/>
      <point x="197" y="319"/>
      <point x="197" y="345" type="curve" smooth="yes"/>
      <point x="197" y="372"/>
      <point x="200" y="390"/>
      <point x="209" y="414" type="curve"/>
    </contour>
    <contour>
      <point x="147" y="592" type="line"/>
      <point x="215" y="428" type="line"/>
      <point x="232" y="468"/>
      <point x="272" y="508"/>
      <point x="312" y="525" type="curve"/>
    </contour>
    <contour>
      <point x="642" y="98" type="line"/>
      <point x="574" y="263" type="line"/>
      <point x="557" y="222"/>
      <point x="517" y="182"/>
      <point x="477" y="165" type="curve"/>
    </contour>
    <contour>
      <point x="396" y="517" type="curve" smooth="yes"/>
      <point x="299" y="517"/>
      <point x="223" y="441"/>
      <point x="223" y="345" type="curve" smooth="yes"/>
      <point x="223" y="251"/>
      <point x="301" y="173"/>
      <point x="395" y="173" type="curve" smooth="yes"/>
      <point x="489" y="173"/>
      <point x="566" y="250"/>
      <point x="566" y="344" type="curve" smooth="yes"/>
      <point x="566" y="438"/>
      <point x="488" y="517"/>
    </contour>
  </outline>
</glyph>
<glyph name="a64" format="1">
  <advance width="696"/>
  <unicode hex="2745"/>
  <outline>
    <contour>
      <point x="195" y="611" type="line"/>
      <point x="327" y="536" type="line"/>
      <point x="318" y="687" type="line" smooth="yes"/>
      <point x="318" y="691"/>
      <point x="320" y="693"/>
      <point x="325" y="693" type="curve" smooth="yes"/>
      <point x="327" y="693" type="line"/>
      <point x="348" y="689" type="line"/>
      <point x="369" y="693" type="line"/>
      <point x="371" y="693" type="line"/>
      <point x="376" y="692"/>
      <point x="378" y="691"/>
      <point x="378" y="687" type="curve" smooth="yes"/>
      <point x="369" y="536" type="line"/>
      <point x="501" y="611" type="line"/>
      <point x="502" y="459" type="line"/>
      <point x="627" y="543" type="line" smooth="yes"/>
      <point x="629" y="544"/>
      <point x="630" y="544"/>
      <point x="631" y="544" type="curve" smooth="yes"/>
      <point x="633" y="544"/>
      <point x="636" y="541"/>
      <point x="637" y="538" type="curve" smooth="yes"/>
      <point x="645" y="518" type="line"/>
      <point x="659" y="501" type="line" smooth="yes"/>
      <point x="660" y="500"/>
      <point x="661" y="496"/>
      <point x="661" y="494" type="curve" smooth="yes"/>
      <point x="661" y="493"/>
      <point x="659" y="491"/>
      <point x="658" y="491" type="curve" smooth="yes"/>
      <point x="522" y="423" type="line"/>
      <point x="654" y="346" type="line"/>
      <point x="522" y="270" type="line"/>
      <point x="658" y="202" type="line" smooth="yes"/>
      <point x="660" y="201"/>
      <point x="661" y="200"/>
      <point x="661" y="198" type="curve" smooth="yes"/>
      <point x="661" y="196"/>
      <point x="660" y="193"/>
      <point x="659" y="192" type="curve" smooth="yes"/>
      <point x="645" y="175" type="line"/>
      <point x="637" y="155" type="line" smooth="yes"/>
      <point x="636" y="152"/>
      <point x="633" y="149"/>
      <point x="631" y="149" type="curve" smooth="yes"/>
      <point x="630" y="149"/>
      <point x="629" y="149"/>
      <point x="627" y="150" type="curve" smooth="yes"/>
      <point x="502" y="234" type="line"/>
      <point x="501" y="82" type="line"/>
      <point x="369" y="157" type="line"/>
      <point x="378" y="6" type="line" smooth="yes"/>
      <point x="378" y="2"/>
      <point x="376" y="0"/>
      <point x="369" y="0" type="curve"/>
      <point x="348" y="4" type="line"/>
      <point x="327" y="0" type="line"/>
      <point x="320" y="0"/>
      <point x="318" y="2"/>
      <point x="318" y="6" type="curve" smooth="yes"/>
      <point x="327" y="157" type="line"/>
      <point x="195" y="82" type="line"/>
      <point x="194" y="234" type="line"/>
      <point x="68" y="150" type="line" smooth="yes"/>
      <point x="67" y="149"/>
      <point x="66" y="149"/>
      <point x="65" y="149" type="curve" smooth="yes"/>
      <point x="63" y="149"/>
      <point x="60" y="152"/>
      <point x="59" y="155" type="curve" smooth="yes"/>
      <point x="51" y="175" type="line"/>
      <point x="37" y="192" type="line" smooth="yes"/>
      <point x="36" y="193"/>
      <point x="35" y="197"/>
      <point x="35" y="199" type="curve" smooth="yes"/>
      <point x="35" y="200"/>
      <point x="36" y="201"/>
      <point x="38" y="202" type="curve" smooth="yes"/>
      <point x="174" y="270" type="line"/>
      <point x="42" y="346" type="line"/>
      <point x="174" y="423" type="line"/>
      <point x="38" y="491" type="line" smooth="yes"/>
      <point x="37" y="491"/>
      <point x="35" y="494"/>
      <point x="35" y="495" type="curve" smooth="yes"/>
      <point x="35" y="497"/>
      <point x="36" y="500"/>
      <point x="37" y="501" type="curve" smooth="yes"/>
      <point x="51" y="518" type="line"/>
      <point x="59" y="538" type="line" smooth="yes"/>
      <point x="60" y="541"/>
      <point x="63" y="544"/>
      <point x="65" y="544" type="curve" smooth="yes"/>
      <point x="66" y="544"/>
      <point x="67" y="544"/>
      <point x="68" y="543" type="curve" smooth="yes"/>
      <point x="194" y="459" type="line"/>
    </contour>
    <contour>
      <point x="215" y="577" type="line"/>
      <point x="215" y="446" type="line"/>
      <point x="329" y="379" type="line"/>
      <point x="329" y="512" type="line"/>
    </contour>
    <contour>
      <point x="481" y="577" type="line"/>
      <point x="367" y="512" type="line"/>
      <point x="367" y="380" type="line"/>
      <point x="481" y="446" type="line"/>
    </contour>
    <contour>
      <point x="614" y="346" type="line"/>
      <point x="501" y="412" type="line"/>
      <point x="386" y="346" type="line"/>
      <point x="501" y="281" type="line"/>
    </contour>
    <contour>
      <point x="481" y="116" type="line"/>
      <point x="481" y="247" type="line"/>
      <point x="367" y="314" type="line"/>
      <point x="367" y="181" type="line"/>
    </contour>
    <contour>
      <point x="215" y="116" type="line"/>
      <point x="329" y="181" type="line"/>
      <point x="329" y="313" type="line"/>
      <point x="215" y="247" type="line"/>
    </contour>
    <contour>
      <point x="82" y="346" type="line"/>
      <point x="195" y="281" type="line"/>
      <point x="310" y="346" type="line"/>
      <point x="195" y="412" type="line"/>
    </contour>
  </outline>
</glyph>
<glyph name="a70" format="1">
  <advance width="785"/>
  <unicode hex="274B"/>
  <outline>
    <contour>
      <point x="369" y="424" type="curve"/>
      <point x="337" y="610" type="line" smooth="yes"/>
      <point x="335" y="622"/>
      <point x="334" y="633"/>
      <point x="334" y="641" type="curve" smooth="yes"/>
      <point x="334" y="673"/>
      <point x="361" y="701"/>
      <point x="391" y="701" type="curve" smooth="yes"/>
      <point x="421" y="701"/>
      <point x="448" y="673"/>
      <point x="448" y="641" type="curve" smooth="yes"/>
      <point x="448" y="635"/>
      <point x="447" y="624"/>
      <point x="444" y="610" type="curve" smooth="yes"/>
      <point x="413" y="425" type="line"/>
      <point x="422" y="423"/>
      <point x="427" y="421"/>
      <point x="433" y="418" type="curve"/>
      <point x="542" y="572" type="line" smooth="yes"/>
      <point x="565" y="604"/>
      <point x="581" y="614"/>
      <point x="605" y="614" type="curve" smooth="yes"/>
      <point x="636" y="614"/>
      <point x="660" y="590"/>
      <point x="660" y="559" type="curve" smooth="yes"/>
      <point x="660" y="534"/>
      <point x="649" y="518"/>
      <point x="618" y="496" type="curve" smooth="yes"/>
      <point x="465" y="387" type="line"/>
      <point x="468" y="382"/>
      <point x="470" y="377"/>
      <point x="473" y="368" type="curve"/>
      <point x="660" y="400" type="line" smooth="yes"/>
      <point x="673" y="402"/>
      <point x="684" y="403"/>
      <point x="691" y="403" type="curve" smooth="yes"/>
      <point x="723" y="403"/>
      <point x="751" y="376"/>
      <point x="751" y="346" type="curve" smooth="yes"/>
      <point x="751" y="316"/>
      <point x="723" y="289"/>
      <point x="691" y="289" type="curve" smooth="yes"/>
      <point x="685" y="289"/>
      <point x="673" y="290"/>
      <point x="660" y="292" type="curve" smooth="yes"/>
      <point x="474" y="324" type="line"/>
      <point x="473" y="318"/>
      <point x="470" y="310"/>
      <point x="467" y="304" type="curve"/>
      <point x="622" y="195" type="line" smooth="yes"/>
      <point x="654" y="172"/>
      <point x="664" y="156"/>
      <point x="664" y="131" type="curve" smooth="yes"/>
      <point x="664" y="101"/>
      <point x="640" y="77"/>
      <point x="609" y="77" type="curve" smooth="yes"/>
      <point x="584" y="77"/>
      <point x="568" y="87"/>
      <point x="546" y="119" type="curve" smooth="yes"/>
      <point x="437" y="272" type="line"/>
      <point x="431" y="268"/>
      <point x="424" y="265"/>
      <point x="418" y="263" type="curve"/>
      <point x="450" y="77" type="line" smooth="yes"/>
      <point x="452" y="64"/>
      <point x="453" y="54"/>
      <point x="453" y="46" type="curve" smooth="yes"/>
      <point x="453" y="14"/>
      <point x="426" y="-14"/>
      <point x="396" y="-14" type="curve" smooth="yes"/>
      <point x="366" y="-14"/>
      <point x="339" y="14"/>
      <point x="339" y="45" type="curve" smooth="yes"/>
      <point x="339" y="52"/>
      <point x="340" y="63"/>
      <point x="343" y="77" type="curve" smooth="yes"/>
      <point x="374" y="262" type="line"/>
      <point x="366" y="264"/>
      <point x="360" y="266"/>
      <point x="354" y="269" type="curve"/>
      <point x="245" y="115" type="line" smooth="yes"/>
      <point x="222" y="84"/>
      <point x="206" y="73"/>
      <point x="182" y="73" type="curve" smooth="yes"/>
      <point x="151" y="73"/>
      <point x="127" y="97"/>
      <point x="127" y="128" type="curve" smooth="yes"/>
      <point x="127" y="153"/>
      <point x="137" y="169"/>
      <point x="169" y="191" type="curve" smooth="yes"/>
      <point x="322" y="300" type="line"/>
      <point x="319" y="305"/>
      <point x="316" y="312"/>
      <point x="314" y="319" type="curve"/>
      <point x="127" y="287" type="line" smooth="yes"/>
      <point x="114" y="285"/>
      <point x="104" y="284"/>
      <point x="96" y="284" type="curve" smooth="yes"/>
      <point x="64" y="284"/>
      <point x="36" y="311"/>
      <point x="36" y="341" type="curve" smooth="yes"/>
      <point x="36" y="371"/>
      <point x="64" y="398"/>
      <point x="96" y="398" type="curve" smooth="yes"/>
      <point x="102" y="398"/>
      <point x="114" y="397"/>
      <point x="127" y="394" type="curve" smooth="yes"/>
      <point x="313" y="363" type="line"/>
      <point x="314" y="369"/>
      <point x="317" y="377"/>
      <point x="320" y="382" type="curve"/>
      <point x="165" y="492" type="line" smooth="yes"/>
      <point x="134" y="515"/>
      <point x="123" y="531"/>
      <point x="123" y="555" type="curve" smooth="yes"/>
      <point x="123" y="586"/>
      <point x="147" y="610"/>
      <point x="178" y="610" type="curve" smooth="yes"/>
      <point x="203" y="610"/>
      <point x="218" y="600"/>
      <point x="241" y="568" type="curve" smooth="yes"/>
      <point x="350" y="415" type="line"/>
      <point x="355" y="419"/>
      <point x="362" y="422"/>
    </contour>
  </outline>
</glyph>
<glyph name="a72" format="1">
  <advance width="873"/>
  <unicode hex="274D"/>
  <outline>
    <contour>
      <point x="439" y="705" type="curve" smooth="yes"/>
      <point x="546" y="705"/>
      <point x="655" y="666"/>
      <point x="725" y="604" type="curve" smooth="yes"/>
      <point x="796" y="540"/>
      <point x="838" y="444"/>
      <point x="838" y="346" type="curve" smooth="yes"/>
      <point x="838" y="136"/>
      <point x="669" y="-13"/>
      <point x="431" y="-13" type="curve" smooth="yes"/>
      <point x="333" y="-13"/>
      <point x="246" y="13"/>
      <point x="179" y="61" type="curve" smooth="yes"/>
      <point x="89" y="127"/>
      <point x="35" y="234"/>
      <point x="35" y="346" type="curve" smooth="yes"/>
      <point x="35" y="556"/>
      <point x="203" y="705"/>
    </contour>
    <contour>
      <point x="397" y="671" type="curve" smooth="yes"/>
      <point x="298" y="671"/>
      <point x="216" y="635"/>
      <point x="151" y="564" type="curve" smooth="yes"/>
      <point x="98" y="505"/>
      <point x="68" y="427"/>
      <point x="68" y="350" type="curve" smooth="yes"/>
      <point x="68" y="168"/>
      <point x="212" y="23"/>
      <point x="392" y="23" type="curve" smooth="yes"/>
      <point x="571" y="23"/>
      <point x="716" y="168"/>
      <point x="716" y="347" type="curve" smooth="yes"/>
      <point x="716" y="440"/>
      <point x="679" y="523"/>
      <point x="609" y="588" type="curve"/>
      <point x="552" y="639"/>
      <point x="471" y="671"/>
    </contour>
  </outline>
</glyph>
<glyph name="a74" format="1">
  <advance width="762"/>
  <unicode hex="274F"/>
  <outline>
    <contour>
      <point x="622" y="691" type="line"/>
      <point x="622" y="587" type="line"/>
      <point x="727" y="587" type="line"/>
      <point x="727" y="0" type="line"/>
      <point x="143" y="0" type="line"/>
      <point x="143" y="97" type="line"/>
      <point x="35" y="97" type="line"/>
      <point x="35" y="691" type="line"/>
    </contour>
    <contour>
      <point x="589" y="658" type="line"/>
      <point x="68" y="658" type="line"/>
      <point x="68" y="130" type="line"/>
      <point x="589" y="130" type="line"/>
    </contour>
  </outline>
</glyph>
<glyph name="a203" format="1">
  <advance width="762"/>
  <unicode hex="2750"/>
  <outline>
    <contour>
      <point x="623" y="0" type="line"/>
      <point x="35" y="0" type="line"/>
      <point x="35" y="589" type="line"/>
      <point x="143" y="589" type="line"/>
      <point x="143" y="691" type="line"/>
      <point x="727" y="691" type="line"/>
      <point x="727" y="104" type="line"/>
      <point x="623" y="104" type="line"/>
    </contour>
    <contour>
      <point x="590" y="33" type="line"/>
      <point x="590" y="556" type="line"/>
      <point x="68" y="556" type="line"/>
      <point x="68" y="33" type="line"/>
    </contour>
  </outline>
</glyph>
<glyph name="a75" format="1">
  <advance width="759"/>
  <unicode hex="2751"/>
  <outline>
    <contour>
      <point x="598" y="691" type="line"/>
      <point x="725" y="571" type="line"/>
      <point x="725" y="0" type="line"/>
      <point x="154" y="0" type="line"/>
      <point x="35" y="115" type="line"/>
      <point x="35" y="691" type="line"/>
    </contour>
    <contour>
      <point x="598" y="658" type="line"/>
      <point x="68" y="658" type="line"/>
      <point x="68" y="123" type="line"/>
      <point x="598" y="123" type="line"/>
    </contour>
  </outline>
</glyph>
<glyph name="a204" format="1">
  <advance width="759"/>
  <unicode hex="2752"/>
  <outline>
    <contour>
      <point x="598" y="0" type="line"/>
      <point x="35" y="0" type="line"/>
      <point x="35" y="576" type="line"/>
      <point x="154" y="691" type="line"/>
      <point x="725" y="691" type="line"/>
      <point x="725" y="120" type="line"/>
    </contour>
    <contour>
      <point x="598" y="33" type="line"/>
      <point x="598" y="568" type="line"/>
      <point x="68" y="568" type="line"/>
      <point x="68" y="33" type="line"/>
    </contour>
  </outline>
</glyph>
<glyph name="a79" format="1">
  <advance width="784"/>
  <unicode hex="2756"/>
  <outline>
    <contour>
      <point x="392" y="705" type="line"/>
      <point x="539" y="544" type="line"/>
      <point x="392" y="395" type="line"/>
      <point x="243" y="544" type="line"/>
    </contour>
    <contour>
      <point x="749" y="348" type="line"/>
      <point x="589" y="195" type="line"/>
      <point x="440" y="348" type="line"/>
      <point x="589" y="497" type="line"/>
    </contour>
    <contour>
      <point x="392" y="-14" type="line"/>
      <point x="243" y="150" type="line"/>
      <point x="392" y="300" type="line"/>
      <point x="543" y="150" type="line"/>
    </contour>
    <contour>
      <point x="35" y="348" type="line"/>
      <point x="194" y="497" type="line"/>
      <point x="343" y="348" type="line"/>
      <point x="194" y="200" type="line"/>
    </contour>
  </outline>
</glyph>
<glyph name="a83" format="1">
  <advance width="277"/>
  <unicode hex="2759"/>
  <outline>
    <contour>
      <point x="242" y="691" type="line"/>
      <point x="242" y="0" type="line"/>
      <point x="35" y="0" type="line"/>
      <point x="35" y="691" type="line"/>
    </contour>
  </outline>
</glyph>
<glyph name="a84" format="1">
  <advance width="415"/>
  <unicode hex="275A"/>
  <outline>
    <contour>
      <point x="380" y="691" type="line"/>
      <point x="380" y="0" type="line"/>
      <point x="35" y="0" type="line"/>
      <point x="35" y="691" type="line"/>
    </contour>
  </outline>
</glyph>
<glyph name="a98" format="1">
  <advance width="392"/>
  <unicode hex="275C"/>
  <outline>
    <contour>
      <point x="45" y="264" type="curve"/>
      <point x="45" y="285" type="line"/>
      <point x="67" y="284"/>
      <point x="69" y="284"/>
      <point x="72" y="284" type="curve" smooth="yes"/>
      <point x="117" y="284"/>
      <point x="165" y="295"/>
      <point x="200" y="312" type="curve" smooth="yes"/>
      <point x="236" y="330"/>
      <point x="267" y="371"/>
      <point x="267" y="400" type="curve" smooth="yes"/>
      <point x="267" y="416"/>
      <point x="256" y="428"/>
      <point x="241" y="428" type="curve" smooth="yes"/>
      <point x="236" y="428"/>
      <point x="236" y="428"/>
      <point x="222" y="422" type="curve" smooth="yes"/>
      <point x="211" y="418"/>
      <point x="194" y="415"/>
      <point x="179" y="415" type="curve" smooth="yes"/>
      <point x="98" y="415"/>
      <point x="34" y="479"/>
      <point x="34" y="560" type="curve" smooth="yes"/>
      <point x="34" y="642"/>
      <point x="104" y="705"/>
      <point x="194" y="705" type="curve" smooth="yes"/>
      <point x="292" y="705"/>
      <point x="357" y="633"/>
      <point x="357" y="525" type="curve" smooth="yes"/>
      <point x="357" y="458"/>
      <point x="330" y="386"/>
      <point x="287" y="340" type="curve" smooth="yes"/>
      <point x="240" y="290"/>
      <point x="166" y="262"/>
      <point x="80" y="262" type="curve" smooth="yes"/>
      <point x="74" y="262"/>
      <point x="60" y="263"/>
    </contour>
  </outline>
</glyph>
<glyph name="a100" format="1">
  <advance width="668"/>
  <unicode hex="275E"/>
  <outline>
    <contour>
      <point x="351" y="263" type="curve"/>
      <point x="331" y="288" type="line"/>
      <point x="432" y="287"/>
      <point x="527" y="344"/>
      <point x="550" y="421" type="curve"/>
      <point x="522" y="407"/>
      <point x="502" y="402"/>
      <point x="476" y="402" type="curve" smooth="yes"/>
      <point x="421" y="402"/>
      <point x="375" y="429"/>
      <point x="342" y="481" type="curve"/>
      <point x="307" y="345"/>
      <point x="200" y="261"/>
      <point x="63" y="263" type="curve"/>
      <point x="43" y="288" type="line"/>
      <point x="141" y="288"/>
      <point x="243" y="349"/>
      <point x="261" y="421" type="curve"/>
      <point x="229" y="406"/>
      <point x="212" y="402"/>
      <point x="187" y="402" type="curve" smooth="yes"/>
      <point x="104" y="402"/>
      <point x="36" y="471"/>
      <point x="36" y="554" type="curve" smooth="yes"/>
      <point x="36" y="638"/>
      <point x="103" y="705"/>
      <point x="188" y="705" type="curve" smooth="yes"/>
      <point x="254" y="705"/>
      <point x="301" y="672"/>
      <point x="331" y="603" type="curve"/>
      <point x="352" y="663"/>
      <point x="410" y="705"/>
      <point x="475" y="705" type="curve" smooth="yes"/>
      <point x="566" y="705"/>
      <point x="634" y="629"/>
      <point x="634" y="528" type="curve" smooth="yes"/>
      <point x="634" y="432"/>
      <point x="576" y="339"/>
      <point x="487" y="294" type="curve" smooth="yes"/>
      <point x="446" y="273"/>
      <point x="404" y="264"/>
    </contour>
  </outline>
</glyph>
<glyph name="a101" format="1">
  <advance width="732"/>
  <unicode hex="2761"/>
  <outline>
    <contour>
      <point x="697" y="691" type="line"/>
      <point x="680" y="668" type="line"/>
      <point x="631" y="655"/>
      <point x="605" y="651"/>
      <point x="561" y="651" type="curve" smooth="yes"/>
      <point x="552" y="651"/>
      <point x="538" y="651"/>
      <point x="519" y="652" type="curve"/>
      <point x="519" y="334" type="line" smooth="yes"/>
      <point x="519" y="167"/>
      <point x="514" y="104"/>
      <point x="496" y="41" type="curve" smooth="yes"/>
      <point x="478" y="-24"/>
      <point x="451" y="-66"/>
      <point x="406" y="-100" type="curve" smooth="yes"/>
      <point x="368" y="-129"/>
      <point x="326" y="-143"/>
      <point x="281" y="-143" type="curve" smooth="yes"/>
      <point x="187" y="-143"/>
      <point x="114" y="-78"/>
      <point x="114" y="4" type="curve" smooth="yes"/>
      <point x="114" y="69"/>
      <point x="162" y="122"/>
      <point x="222" y="122" type="curve" smooth="yes"/>
      <point x="268" y="122"/>
      <point x="306" y="87"/>
      <point x="306" y="44" type="curve" smooth="yes"/>
      <point x="306" y="11"/>
      <point x="283" y="-16"/>
      <point x="251" y="-18" type="curve" smooth="yes"/>
      <point x="227" y="-20"/>
      <point x="226" y="-20"/>
      <point x="221" y="-25" type="curve" smooth="yes"/>
      <point x="214" y="-31"/>
      <point x="211" y="-39"/>
      <point x="211" y="-47" type="curve" smooth="yes"/>
      <point x="211" y="-81"/>
      <point x="251" y="-110"/>
      <point x="299" y="-110" type="curve" smooth="yes"/>
      <point x="369" y="-110"/>
      <point x="428" y="-58"/>
      <point x="456" y="28" type="curve" smooth="yes"/>
      <point x="471" y="74"/>
      <point x="478" y="133"/>
      <point x="480" y="245" type="curve"/>
      <point x="426" y="236"/>
      <point x="371" y="232"/>
      <point x="325" y="232" type="curve" smooth="yes"/>
      <point x="265" y="232"/>
      <point x="218" y="240"/>
      <point x="176" y="256" type="curve" smooth="yes"/>
      <point x="89" y="291"/>
      <point x="35" y="370"/>
      <point x="35" y="463" type="curve" smooth="yes"/>
      <point x="35" y="569"/>
      <point x="104" y="657"/>
      <point x="204" y="678" type="curve" smooth="yes"/>
      <point x="250" y="688"/>
      <point x="294" y="691"/>
      <point x="383" y="691" type="curve" smooth="yes"/>
      <point x="480" y="691" type="line"/>
      <point x="480" y="795" type="line"/>
      <point x="519" y="805" type="line"/>
      <point x="519" y="691" type="line"/>
    </contour>
    <contour>
      <point x="480" y="652" type="line"/>
      <point x="383" y="652" type="line"/>
      <point x="375" y="608"/>
      <point x="369" y="518"/>
      <point x="369" y="455" type="curve" smooth="yes"/>
      <point x="369" y="391"/>
      <point x="374" y="331"/>
      <point x="383" y="294" type="curve"/>
      <point x="419" y="276"/>
      <point x="452" y="266"/>
      <point x="480" y="263" type="curve"/>
    </contour>
  </outline>
</glyph>
<glyph name="a102" format="1">
  <advance width="544"/>
  <unicode hex="2762"/>
  <outline>
    <contour>
      <point x="272" y="297" type="curve"/>
      <point x="249" y="364"/>
      <point x="238" y="377"/>
      <point x="181" y="407" type="curve" smooth="yes"/>
      <point x="128" y="435"/>
      <point x="113" y="444"/>
      <point x="96" y="461" type="curve" smooth="yes"/>
      <point x="69" y="486"/>
      <point x="56" y="518"/>
      <point x="56" y="556" type="curve" smooth="yes"/>
      <point x="56" y="592"/>
      <point x="69" y="627"/>
      <point x="93" y="653" type="curve" smooth="yes"/>
      <point x="130" y="694"/>
      <point x="169" y="705"/>
      <point x="272" y="705" type="curve" smooth="yes"/>
      <point x="375" y="705"/>
      <point x="414" y="694"/>
      <point x="451" y="653" type="curve" smooth="yes"/>
      <point x="474" y="627"/>
      <point x="488" y="592"/>
      <point x="488" y="556" type="curve" smooth="yes"/>
      <point x="488" y="513"/>
      <point x="471" y="479"/>
      <point x="436" y="451" type="curve" smooth="yes"/>
      <point x="422" y="439"/>
      <point x="407" y="430"/>
      <point x="363" y="407" type="curve" smooth="yes"/>
      <point x="307" y="378"/>
      <point x="295" y="363"/>
    </contour>
    <contour>
      <point x="275" y="270" type="curve" smooth="yes"/>
      <point x="351" y="270"/>
      <point x="415" y="206"/>
      <point x="415" y="128" type="curve" smooth="yes"/>
      <point x="415" y="50"/>
      <point x="351" y="-14"/>
      <point x="273" y="-14" type="curve" smooth="yes"/>
      <point x="193" y="-14"/>
      <point x="130" y="50"/>
      <point x="130" y="129" type="curve" smooth="yes"/>
      <point x="130" y="208"/>
      <point x="194" y="270"/>
    </contour>
  </outline>
</glyph>
<glyph name="a106" format="1">
  <advance width="667"/>
  <unicode hex="2765"/>
  <outline>
    <contour>
      <point x="633" y="381" type="curve"/>
      <point x="633" y="316" type="line"/>
      <point x="617" y="318"/>
      <point x="610" y="318"/>
      <point x="602" y="318" type="curve" smooth="yes"/>
      <point x="546" y="318"/>
      <point x="489" y="291"/>
      <point x="450" y="246" type="curve" smooth="yes"/>
      <point x="417" y="208"/>
      <point x="413" y="199"/>
      <point x="377" y="102" type="curve" smooth="yes"/>
      <point x="352" y="33"/>
      <point x="286" y="-13"/>
      <point x="211" y="-13" type="curve" smooth="yes"/>
      <point x="114" y="-13"/>
      <point x="35" y="65"/>
      <point x="35" y="162" type="curve" smooth="yes"/>
      <point x="35" y="219"/>
      <point x="64" y="274"/>
      <point x="112" y="308" type="curve" smooth="yes"/>
      <point x="133" y="322"/>
      <point x="150" y="329"/>
      <point x="187" y="338" type="curve"/>
      <point x="187" y="356" type="line"/>
      <point x="145" y="366"/>
      <point x="126" y="374"/>
      <point x="103" y="393" type="curve" smooth="yes"/>
      <point x="60" y="427"/>
      <point x="35" y="478"/>
      <point x="35" y="531" type="curve" smooth="yes"/>
      <point x="35" y="627"/>
      <point x="115" y="706"/>
      <point x="213" y="706" type="curve" smooth="yes"/>
      <point x="268" y="706"/>
      <point x="317" y="681"/>
      <point x="350" y="637" type="curve" smooth="yes"/>
      <point x="363" y="620"/>
      <point x="372" y="602"/>
      <point x="393" y="548" type="curve" smooth="yes"/>
      <point x="420" y="480"/>
      <point x="451" y="437"/>
      <point x="492" y="411" type="curve" smooth="yes"/>
      <point x="524" y="390"/>
      <point x="561" y="378"/>
      <point x="593" y="378" type="curve" smooth="yes"/>
      <point x="603" y="378"/>
      <point x="615" y="379"/>
    </contour>
  </outline>
</glyph>
<glyph name="a90" format="1">
  <advance width="390"/>
  <unicode hex="2769"/>
  <outline>
    <contour>
      <point x="35" y="694" type="curve"/>
      <point x="43" y="705" type="line"/>
      <point x="109" y="686"/>
      <point x="141" y="675"/>
      <point x="175" y="658" type="curve" smooth="yes"/>
      <point x="283" y="602"/>
      <point x="355" y="478"/>
      <point x="355" y="346" type="curve" smooth="yes"/>
      <point x="355" y="213"/>
      <point x="283" y="88"/>
      <point x="175" y="33" type="curve" smooth="yes"/>
      <point x="141" y="16"/>
      <point x="110" y="5"/>
      <point x="43" y="-14" type="curve"/>
      <point x="35" y="-3" type="line"/>
      <point x="162" y="40"/>
      <point x="243" y="176"/>
      <point x="243" y="345" type="curve" smooth="yes"/>
      <point x="243" y="515"/>
      <point x="163" y="650"/>
    </contour>
  </outline>
</glyph>
<glyph name="a93" format="1">
  <advance width="317"/>
  <unicode hex="276A"/>
  <outline>
    <contour>
      <point x="174" y="691" type="curve"/>
      <point x="283" y="691" type="line"/>
      <point x="238" y="629"/>
      <point x="199" y="472"/>
      <point x="199" y="349" type="curve" smooth="yes"/>
      <point x="199" y="228"/>
      <point x="224" y="126"/>
      <point x="283" y="0" type="curve"/>
      <point x="174" y="0" type="line"/>
      <point x="83" y="106"/>
      <point x="35" y="225"/>
      <point x="35" y="345" type="curve" smooth="yes"/>
      <point x="35" y="465"/>
      <point x="81" y="579"/>
    </contour>
  </outline>
</glyph>
<glyph name="a94" format="1">
  <advance width="317"/>
  <unicode hex="276B"/>
  <outline>
    <contour>
      <point x="35" y="691" type="curve"/>
      <point x="144" y="691" type="line"/>
      <point x="236" y="580"/>
      <point x="283" y="465"/>
      <point x="283" y="345" type="curve" smooth="yes"/>
      <point x="283" y="225"/>
      <point x="234" y="103"/>
      <point x="144" y="0" type="curve"/>
      <point x="35" y="0" type="line"/>
      <point x="93" y="120"/>
      <point x="119" y="228"/>
      <point x="119" y="346" type="curve" smooth="yes"/>
      <point x="119" y="471"/>
      <point x="97" y="563"/>
    </contour>
  </outline>
</glyph>
<glyph name="a92" format="1">
  <advance width="276"/>
  <unicode hex="276D"/>
  <outline>
    <contour>
      <point x="138" y="691" type="line"/>
      <point x="242" y="345" type="line"/>
      <point x="138" y="0" type="line"/>
      <point x="35" y="0" type="line"/>
      <point x="138" y="345" type="line"/>
      <point x="35" y="691" type="line"/>
    </contour>
  </outline>
</glyph>
<glyph name="a85" format="1">
  <advance width="509"/>
  <unicode hex="276F"/>
  <outline>
    <contour>
      <point x="232" y="0" type="line"/>
      <point x="35" y="0" type="line"/>
      <point x="278" y="346" type="line"/>
      <point x="35" y="691" type="line"/>
      <point x="232" y="691" type="line"/>
      <point x="475" y="346" type="line"/>
    </contour>
  </outline>
</glyph>
<glyph name="a206" format="1">
  <advance width="410"/>
  <unicode hex="2770"/>
  <outline>
    <contour>
      <point x="135" y="691" type="line"/>
      <point x="375" y="691" type="line"/>
      <point x="275" y="346" type="line"/>
      <point x="375" y="0" type="line"/>
      <point x="135" y="0" type="line"/>
      <point x="35" y="346" type="line"/>
    </contour>
  </outline>
</glyph>
<glyph name="a86" format="1">
  <advance width="410"/>
  <unicode hex="2771"/>
  <outline>
    <contour>
      <point x="275" y="691" type="line"/>
      <point x="375" y="346" type="line"/>
      <point x="275" y="0" type="line"/>
      <point x="35" y="0" type="line"/>
      <point x="135" y="346" type="line"/>
      <point x="35" y="691" type="line"/>
    </contour>
  </outline>
</glyph>
<glyph name="a87" format="1">
  <advance width="234"/>
  <unicode hex="2772"/>
  <outline>
    <contour>
      <point x="199" y="694" type="line"/>
      <point x="85" y="616" type="line"/>
      <point x="85" y="75" type="line"/>
      <point x="199" y="-3" type="line"/>
      <point x="177" y="-14" type="line"/>
      <point x="35" y="75" type="line"/>
      <point x="35" y="616" type="line"/>
      <point x="177" y="705" type="line"/>
    </contour>
  </outline>
</glyph>
<glyph name="a88" format="1">
  <advance width="234"/>
  <unicode hex="2773"/>
  <outline>
    <contour>
      <point x="35" y="694" type="line"/>
      <point x="57" y="705" type="line"/>
      <point x="199" y="616" type="line"/>
      <point x="199" y="75" type="line"/>
      <point x="57" y="-14" type="line"/>
      <point x="35" y="-3" type="line"/>
      <point x="149" y="75" type="line"/>
      <point x="149" y="616" type="line"/>
    </contour>
  </outline>
</glyph>
<glyph name="a96" format="1">
  <advance width="334"/>
  <unicode hex="2775"/>
  <outline>
    <contour>
      <point x="35" y="679" type="curve"/>
      <point x="35" y="691" type="line"/>
      <point x="173" y="691"/>
      <point x="187" y="690"/>
      <point x="213" y="676" type="curve" smooth="yes"/>
      <point x="233" y="665"/>
      <point x="243" y="650"/>
      <point x="247" y="622" type="curve" smooth="yes"/>
      <point x="248" y="612"/>
      <point x="248" y="612"/>
      <point x="248" y="571" type="curve" smooth="yes"/>
      <point x="248" y="439" type="line" smooth="yes"/>
      <point x="248" y="391"/>
      <point x="249" y="387"/>
      <point x="257" y="374" type="curve" smooth="yes"/>
      <point x="267" y="359"/>
      <point x="279" y="352"/>
      <point x="299" y="351" type="curve"/>
      <point x="299" y="339" type="line"/>
      <point x="273" y="338"/>
      <point x="261" y="330"/>
      <point x="253" y="312" type="curve"/>
      <point x="249" y="300"/>
      <point x="248" y="293"/>
      <point x="248" y="252" type="curve" smooth="yes"/>
      <point x="248" y="120" type="line" smooth="yes"/>
      <point x="248" y="65"/>
      <point x="247" y="58"/>
      <point x="240" y="42" type="curve" smooth="yes"/>
      <point x="228" y="17"/>
      <point x="203" y="5"/>
      <point x="157" y="2" type="curve" smooth="yes"/>
      <point x="137" y="0"/>
      <point x="121" y="0"/>
      <point x="35" y="0" type="curve"/>
      <point x="35" y="12" type="line"/>
      <point x="41" y="12" type="line" smooth="yes"/>
      <point x="61" y="12"/>
      <point x="81" y="19"/>
      <point x="90" y="29" type="curve" smooth="yes"/>
      <point x="101" y="42"/>
      <point x="102" y="50"/>
      <point x="102" y="108" type="curve" smooth="yes"/>
      <point x="102" y="217" type="line" smooth="yes"/>
      <point x="102" y="272"/>
      <point x="105" y="291"/>
      <point x="118" y="309" type="curve" smooth="yes"/>
      <point x="132" y="329"/>
      <point x="147" y="337"/>
      <point x="182" y="345" type="curve"/>
      <point x="147" y="354"/>
      <point x="132" y="362"/>
      <point x="118" y="382" type="curve" smooth="yes"/>
      <point x="105" y="400"/>
      <point x="102" y="419"/>
      <point x="102" y="474" type="curve" smooth="yes"/>
      <point x="102" y="583" type="line" smooth="yes"/>
      <point x="102" y="650"/>
      <point x="99" y="661"/>
      <point x="77" y="671" type="curve" smooth="yes"/>
      <point x="66" y="677"/>
      <point x="54" y="679"/>
    </contour>
  </outline>
</glyph>
<glyph name="a131" format="1">
  <advance width="788"/>
  <unicode hex="2777"/>
  <outline>
    <contour>
      <point x="401" y="706" type="curve" smooth="yes"/>
      <point x="593" y="706"/>
      <point x="754" y="542"/>
      <point x="754" y="347" type="curve" smooth="yes"/>
      <point x="754" y="148"/>
      <point x="593" y="-13"/>
      <point x="395" y="-13" type="curve" smooth="yes"/>
      <point x="195" y="-13"/>
      <point x="35" y="148"/>
      <point x="35" y="350" type="curve" smooth="yes"/>
      <point x="35" y="547"/>
      <point x="198" y="706"/>
    </contour>
    <contour>
      <point x="546" y="294" type="line"/>
      <point x="546" y="247" type="line" smooth="yes"/>
      <point x="546" y="223"/>
      <point x="543" y="210"/>
      <point x="537" y="202" type="curve" smooth="yes"/>
      <point x="529" y="193"/>
      <point x="527" y="192"/>
      <point x="492" y="192" type="curve" smooth="yes"/>
      <point x="275" y="192" type="line"/>
      <point x="292" y="235"/>
      <point x="345" y="279"/>
      <point x="427" y="316" type="curve" smooth="yes"/>
      <point x="485" y="343"/>
      <point x="511" y="359"/>
      <point x="532" y="382" type="curve" smooth="yes"/>
      <point x="559" y="411"/>
      <point x="572" y="443"/>
      <point x="572" y="480" type="curve" smooth="yes"/>
      <point x="572" y="565"/>
      <point x="499" y="620"/>
      <point x="387" y="620" type="curve" smooth="yes"/>
      <point x="296" y="620"/>
      <point x="231" y="574"/>
      <point x="231" y="511" type="curve" smooth="yes"/>
      <point x="231" y="477"/>
      <point x="254" y="452"/>
      <point x="286" y="452" type="curve" smooth="yes"/>
      <point x="316" y="452"/>
      <point x="340" y="475"/>
      <point x="340" y="502" type="curve" smooth="yes"/>
      <point x="340" y="511"/>
      <point x="340" y="511"/>
      <point x="331" y="534" type="curve" smooth="yes"/>
      <point x="330" y="537"/>
      <point x="329" y="539"/>
      <point x="329" y="541" type="curve" smooth="yes"/>
      <point x="329" y="559"/>
      <point x="360" y="580"/>
      <point x="387" y="580" type="curve" smooth="yes"/>
      <point x="427" y="580"/>
      <point x="454" y="543"/>
      <point x="454" y="488" type="curve" smooth="yes"/>
      <point x="454" y="455"/>
      <point x="442" y="420"/>
      <point x="420" y="392" type="curve" smooth="yes"/>
      <point x="397" y="361"/>
      <point x="385" y="350"/>
      <point x="324" y="305" type="curve" smooth="yes"/>
      <point x="246" y="247"/>
      <point x="209" y="187"/>
      <point x="209" y="120" type="curve" smooth="yes"/>
      <point x="209" y="114"/>
      <point x="209" y="105"/>
      <point x="210" y="93" type="curve"/>
      <point x="583" y="93" type="line"/>
      <point x="583" y="294" type="line"/>
    </contour>
  </outline>
</glyph>
<glyph name="a134" format="1">
  <advance width="788"/>
  <unicode hex="277A"/>
  <outline>
    <contour>
      <point x="400" y="706" type="curve" smooth="yes"/>
      <point x="593" y="706"/>
      <point x="754" y="542"/>
      <point x="754" y="347" type="curve" smooth="yes"/>
      <point x="754" y="148"/>
      <point x="593" y="-13"/>
      <point x="395" y="-13" type="curve" smooth="yes"/>
      <point x="195" y="-13"/>
      <point x="35" y="148"/>
      <point x="35" y="349" type="curve" smooth="yes"/>
      <point x="35" y="547"/>
      <point x="198" y="706"/>
    </contour>
    <contour>
      <point x="274" y="371" type="curve"/>
      <point x="287" y="505" type="line"/>
      <point x="324" y="502"/>
      <point x="343" y="501"/>
      <point x="378" y="501" type="curve" smooth="yes"/>
      <point x="477" y="501"/>
      <point x="503" y="505"/>
      <point x="528" y="526" type="curve" smooth="yes"/>
      <point x="544" y="539"/>
      <point x="561" y="575"/>
      <point x="570" y="618" type="curve"/>
      <point x="525" y="603"/>
      <point x="491" y="598"/>
      <point x="434" y="598" type="curve" smooth="yes"/>
      <point x="390" y="598"/>
      <point x="374" y="600"/>
      <point x="256" y="618" type="curve"/>
      <point x="251" y="525"/>
      <point x="242" y="431"/>
      <point x="230" y="330" type="curve"/>
      <point x="274" y="311" type="line"/>
      <point x="304" y="349"/>
      <point x="331" y="365"/>
      <point x="362" y="365" type="curve" smooth="yes"/>
      <point x="413" y="365"/>
      <point x="451" y="315"/>
      <point x="451" y="249" type="curve" smooth="yes"/>
      <point x="451" y="176"/>
      <point x="404" y="117"/>
      <point x="345" y="117" type="curve" smooth="yes"/>
      <point x="315" y="117"/>
      <point x="290" y="134"/>
      <point x="290" y="154" type="curve" smooth="yes"/>
      <point x="290" y="160"/>
      <point x="290" y="160"/>
      <point x="298" y="177" type="curve" smooth="yes"/>
      <point x="302" y="185"/>
      <point x="304" y="194"/>
      <point x="304" y="201" type="curve" smooth="yes"/>
      <point x="304" y="230"/>
      <point x="278" y="253"/>
      <point x="246" y="253" type="curve" smooth="yes"/>
      <point x="213" y="253"/>
      <point x="189" y="228"/>
      <point x="189" y="193" type="curve" smooth="yes"/>
      <point x="189" y="133"/>
      <point x="261" y="85"/>
      <point x="354" y="85" type="curve" smooth="yes"/>
      <point x="481" y="85"/>
      <point x="577" y="159"/>
      <point x="577" y="256" type="curve" smooth="yes"/>
      <point x="577" y="346"/>
      <point x="503" y="411"/>
      <point x="401" y="411" type="curve" smooth="yes"/>
      <point x="349" y="411"/>
      <point x="307" y="398"/>
    </contour>
  </outline>
</glyph>
<glyph name="a137" format="1">
  <advance width="788"/>
  <unicode hex="277D"/>
  <outline>
    <contour>
      <point x="428" y="428" type="curve"/>
      <point x="381" y="453" type="line" smooth="yes"/>
      <point x="344" y="472"/>
      <point x="327" y="495"/>
      <point x="327" y="523" type="curve" smooth="yes"/>
      <point x="327" y="560"/>
      <point x="360" y="588"/>
      <point x="403" y="588" type="curve" smooth="yes"/>
      <point x="447" y="588"/>
      <point x="480" y="556"/>
      <point x="480" y="513" type="curve" smooth="yes"/>
      <point x="480" y="478"/>
      <point x="463" y="450"/>
    </contour>
    <contour>
      <point x="353" y="354" type="curve"/>
      <point x="418" y="318" type="line"/>
      <point x="466" y="290"/>
      <point x="487" y="263"/>
      <point x="487" y="224" type="curve" smooth="yes"/>
      <point x="487" y="172"/>
      <point x="443" y="132"/>
      <point x="385" y="132" type="curve" smooth="yes"/>
      <point x="326" y="132"/>
      <point x="281" y="177"/>
      <point x="281" y="237" type="curve" smooth="yes"/>
      <point x="281" y="285"/>
      <point x="307" y="327"/>
    </contour>
    <contour>
      <point x="400" y="706" type="curve" smooth="yes"/>
      <point x="593" y="706"/>
      <point x="754" y="542"/>
      <point x="754" y="347" type="curve" smooth="yes"/>
      <point x="754" y="148"/>
      <point x="593" y="-13"/>
      <point x="395" y="-13" type="curve" smooth="yes"/>
      <point x="195" y="-13"/>
      <point x="35" y="148"/>
      <point x="35" y="349" type="curve" smooth="yes"/>
      <point x="35" y="547"/>
      <point x="198" y="706"/>
    </contour>
    <contour>
      <point x="465" y="410" type="curve"/>
      <point x="526" y="449"/>
      <point x="546" y="476"/>
      <point x="546" y="519" type="curve" smooth="yes"/>
      <point x="546" y="580"/>
      <point x="486" y="625"/>
      <point x="404" y="625" type="curve" smooth="yes"/>
      <point x="309" y="625"/>
      <point x="241" y="568"/>
      <point x="241" y="489" type="curve" smooth="yes"/>
      <point x="241" y="440"/>
      <point x="259" y="414"/>
      <point x="316" y="375" type="curve"/>
      <point x="234" y="328"/>
      <point x="206" y="290"/>
      <point x="206" y="227" type="curve" smooth="yes"/>
      <point x="206" y="141"/>
      <point x="278" y="85"/>
      <point x="387" y="85" type="curve" smooth="yes"/>
      <point x="502" y="85"/>
      <point x="585" y="156"/>
      <point x="585" y="255" type="curve" smooth="yes"/>
      <point x="585" y="323"/>
      <point x="550" y="367"/>
    </contour>
  </outline>
</glyph>
<glyph name="a138" format="1">
  <advance width="788"/>
  <unicode hex="277E"/>
  <outline>
    <contour>
      <point x="389" y="587" type="curve" smooth="yes"/>
      <point x="446" y="587"/>
      <point x="487" y="537"/>
      <point x="487" y="468" type="curve" smooth="yes"/>
      <point x="487" y="400"/>
      <point x="445" y="349"/>
      <point x="388" y="349" type="curve" smooth="yes"/>
      <point x="331" y="349"/>
      <point x="294" y="396"/>
      <point x="294" y="469" type="curve" smooth="yes"/>
      <point x="294" y="539"/>
      <point x="333" y="587"/>
    </contour>
    <contour>
      <point x="400" y="706" type="curve" smooth="yes"/>
      <point x="593" y="706"/>
      <point x="754" y="542"/>
      <point x="754" y="347" type="curve" smooth="yes"/>
      <point x="754" y="148"/>
      <point x="593" y="-13"/>
      <point x="395" y="-13" type="curve" smooth="yes"/>
      <point x="195" y="-13"/>
      <point x="35" y="148"/>
      <point x="35" y="349" type="curve" smooth="yes"/>
      <point x="35" y="547"/>
      <point x="198" y="706"/>
    </contour>
    <contour>
      <point x="494" y="363" type="curve"/>
      <point x="494" y="343" type="line"/>
      <point x="494" y="333" type="line" smooth="yes"/>
      <point x="494" y="257"/>
      <point x="474" y="188"/>
      <point x="441" y="149" type="curve"/>
      <point x="426" y="133"/>
      <point x="401" y="122"/>
      <point x="377" y="122" type="curve" smooth="yes"/>
      <point x="346" y="122"/>
      <point x="321" y="139"/>
      <point x="321" y="161" type="curve" smooth="yes"/>
      <point x="321" y="164"/>
      <point x="322" y="172"/>
      <point x="325" y="183" type="curve" smooth="yes"/>
      <point x="326" y="188"/>
      <point x="327" y="194"/>
      <point x="327" y="199" type="curve" smooth="yes"/>
      <point x="327" y="228"/>
      <point x="305" y="252"/>
      <point x="277" y="252" type="curve" smooth="yes"/>
      <point x="247" y="252"/>
      <point x="224" y="224"/>
      <point x="224" y="189" type="curve" smooth="yes"/>
      <point x="224" y="129"/>
      <point x="292" y="85"/>
      <point x="383" y="85" type="curve" smooth="yes"/>
      <point x="457" y="85"/>
      <point x="511" y="110"/>
      <point x="547" y="161" type="curve" smooth="yes"/>
      <point x="585" y="216"/>
      <point x="607" y="291"/>
      <point x="607" y="369" type="curve" smooth="yes"/>
      <point x="607" y="523"/>
      <point x="520" y="625"/>
      <point x="389" y="625" type="curve" smooth="yes"/>
      <point x="276" y="625"/>
      <point x="192" y="548"/>
      <point x="192" y="444" type="curve" smooth="yes"/>
      <point x="192" y="356"/>
      <point x="256" y="296"/>
      <point x="350" y="296" type="curve" smooth="yes"/>
      <point x="412" y="296"/>
      <point x="456" y="316"/>
    </contour>
  </outline>
</glyph>
<glyph name="a142" format="1">
  <advance width="788"/>
  <unicode hex="2782"/>
  <outline>
    <contour>
      <point x="310" y="462" type="curve"/>
      <point x="256" y="462" type="line"/>
      <point x="257" y="495"/>
      <point x="262" y="514"/>
      <point x="274" y="534" type="curve" smooth="yes"/>
      <point x="296" y="572"/>
      <point x="342" y="595"/>
      <point x="392" y="595" type="curve" smooth="yes"/>
      <point x="473" y="595"/>
      <point x="533" y="539"/>
      <point x="533" y="465" type="curve" smooth="yes"/>
      <point x="533" y="415"/>
      <point x="513" y="385"/>
      <point x="465" y="363" type="curve"/>
      <point x="519" y="345"/>
      <point x="546" y="308"/>
      <point x="546" y="249" type="curve" smooth="yes"/>
      <point x="546" y="168"/>
      <point x="484" y="111"/>
      <point x="395" y="111" type="curve" smooth="yes"/>
      <point x="315" y="111"/>
      <point x="255" y="162"/>
      <point x="255" y="231" type="curve" smooth="yes"/>
      <point x="255" y="236"/>
      <point x="255" y="243"/>
      <point x="256" y="250" type="curve"/>
      <point x="310" y="261" type="line"/>
      <point x="310" y="229"/>
      <point x="314" y="211"/>
      <point x="324" y="197" type="curve" smooth="yes"/>
      <point x="340" y="174"/>
      <point x="368" y="161"/>
      <point x="399" y="161" type="curve" smooth="yes"/>
      <point x="453" y="161"/>
      <point x="490" y="197"/>
      <point x="490" y="249" type="curve" smooth="yes"/>
      <point x="490" y="306"/>
      <point x="451" y="338"/>
      <point x="383" y="338" type="curve" smooth="yes"/>
      <point x="350" y="338" type="line"/>
      <point x="350" y="381" type="line"/>
      <point x="359" y="381" type="line"/>
      <point x="369" y="380"/>
      <point x="376" y="379"/>
      <point x="379" y="379" type="curve" smooth="yes"/>
      <point x="400" y="379"/>
      <point x="422" y="387"/>
      <point x="445" y="402" type="curve" smooth="yes"/>
      <point x="464" y="415"/>
      <point x="473" y="436"/>
      <point x="473" y="467" type="curve" smooth="yes"/>
      <point x="473" y="518"/>
      <point x="441" y="550"/>
      <point x="390" y="550" type="curve" smooth="yes"/>
      <point x="353" y="550"/>
      <point x="324" y="530"/>
      <point x="315" y="500" type="curve" smooth="yes"/>
      <point x="312" y="489"/>
      <point x="310" y="480"/>
    </contour>
    <contour>
      <point x="400" y="706" type="curve" smooth="yes"/>
      <point x="593" y="706"/>
      <point x="754" y="542"/>
      <point x="754" y="347" type="curve" smooth="yes"/>
      <point x="754" y="148"/>
      <point x="593" y="-13"/>
      <point x="395" y="-13" type="curve" smooth="yes"/>
      <point x="195" y="-13"/>
      <point x="35" y="148"/>
      <point x="35" y="349" type="curve" smooth="yes"/>
      <point x="35" y="547"/>
      <point x="198" y="706"/>
    </contour>
    <contour>
      <point x="400" y="673" type="curve" smooth="yes"/>
      <point x="300" y="673"/>
      <point x="217" y="637"/>
      <point x="152" y="565" type="curve" smooth="yes"/>
      <point x="98" y="506"/>
      <point x="68" y="428"/>
      <point x="68" y="349" type="curve" smooth="yes"/>
      <point x="68" y="166"/>
      <point x="213" y="20"/>
      <point x="395" y="20" type="curve" smooth="yes"/>
      <point x="575" y="20"/>
      <point x="721" y="166"/>
      <point x="721" y="347" type="curve" smooth="yes"/>
      <point x="721" y="441"/>
      <point x="684" y="524"/>
      <point x="613" y="589" type="curve" smooth="yes"/>
      <point x="556" y="641"/>
      <point x="474" y="673"/>
    </contour>
  </outline>
</glyph>
<glyph name="a143" format="1">
  <advance width="788"/>
  <unicode hex="2783"/>
  <outline>
    <contour>
      <point x="538" y="285" type="line"/>
      <point x="538" y="235" type="line"/>
      <point x="463" y="235" type="line"/>
      <point x="463" y="117" type="line"/>
      <point x="407" y="117" type="line"/>
      <point x="407" y="235" type="line"/>
      <point x="200" y="235" type="line"/>
      <point x="200" y="285" type="line"/>
      <point x="407" y="593" type="line"/>
      <point x="463" y="593" type="line"/>
      <point x="463" y="285" type="line"/>
    </contour>
    <contour>
      <point x="407" y="514" type="line"/>
      <point x="256" y="285" type="line"/>
      <point x="407" y="285" type="line"/>
    </contour>
    <contour>
      <point x="400" y="706" type="curve" smooth="yes"/>
      <point x="593" y="706"/>
      <point x="754" y="542"/>
      <point x="754" y="347" type="curve" smooth="yes"/>
      <point x="754" y="148"/>
      <point x="593" y="-13"/>
      <point x="395" y="-13" type="curve" smooth="yes"/>
      <point x="195" y="-13"/>
      <point x="35" y="148"/>
      <point x="35" y="349" type="curve" smooth="yes"/>
      <point x="35" y="547"/>
      <point x="198" y="706"/>
    </contour>
    <contour>
      <point x="400" y="673" type="curve" smooth="yes"/>
      <point x="300" y="673"/>
      <point x="217" y="637"/>
      <point x="152" y="565" type="curve" smooth="yes"/>
      <point x="98" y="506"/>
      <point x="68" y="428"/>
      <point x="68" y="349" type="curve" smooth="yes"/>
      <point x="68" y="166"/>
      <point x="213" y="20"/>
      <point x="395" y="20" type="curve" smooth="yes"/>
      <point x="575" y="20"/>
      <point x="721" y="166"/>
      <point x="721" y="347" type="curve" smooth="yes"/>
      <point x="721" y="441"/>
      <point x="684" y="524"/>
      <point x="613" y="589" type="curve" smooth="yes"/>
      <point x="556" y="641"/>
      <point x="474" y="673"/>
    </contour>
  </outline>
</glyph>
<glyph name="a145" format="1">
  <advance width="788"/>
  <unicode hex="2785"/>
  <outline>
    <contour>
      <point x="520" y="488" type="curve"/>
      <point x="469" y="474" type="line"/>
      <point x="463" y="500"/>
      <point x="461" y="507"/>
      <point x="455" y="518" type="curve" smooth="yes"/>
      <point x="444" y="537"/>
      <point x="421" y="550"/>
      <point x="395" y="550" type="curve" smooth="yes"/>
      <point x="330" y="550"/>
      <point x="289" y="483"/>
      <point x="289" y="375" type="curve" smooth="yes"/>
      <point x="289" y="371"/>
      <point x="289" y="362"/>
      <point x="290" y="352" type="curve"/>
      <point x="311" y="397"/>
      <point x="347" y="420"/>
      <point x="398" y="420" type="curve" smooth="yes"/>
      <point x="477" y="420"/>
      <point x="533" y="359"/>
      <point x="533" y="272" type="curve" smooth="yes"/>
      <point x="533" y="180"/>
      <point x="471" y="111"/>
      <point x="388" y="111" type="curve" smooth="yes"/>
      <point x="339" y="111"/>
      <point x="290" y="139"/>
      <point x="266" y="181" type="curve" smooth="yes"/>
      <point x="244" y="219"/>
      <point x="233" y="274"/>
      <point x="233" y="348" type="curve" smooth="yes"/>
      <point x="233" y="416"/>
      <point x="242" y="466"/>
      <point x="260" y="506" type="curve" smooth="yes"/>
      <point x="285" y="559"/>
      <point x="341" y="595"/>
      <point x="399" y="595" type="curve" smooth="yes"/>
      <point x="465" y="595"/>
      <point x="507" y="558"/>
    </contour>
    <contour>
      <point x="390" y="381" type="curve" smooth="yes"/>
      <point x="336" y="381"/>
      <point x="295" y="335"/>
      <point x="295" y="274" type="curve" smooth="yes"/>
      <point x="295" y="206"/>
      <point x="336" y="156"/>
      <point x="392" y="156" type="curve" smooth="yes"/>
      <point x="443" y="156"/>
      <point x="477" y="199"/>
      <point x="477" y="265" type="curve" smooth="yes"/>
      <point x="477" y="336"/>
      <point x="443" y="381"/>
    </contour>
    <contour>
      <point x="400" y="706" type="curve" smooth="yes"/>
      <point x="593" y="706"/>
      <point x="754" y="542"/>
      <point x="754" y="347" type="curve" smooth="yes"/>
      <point x="754" y="148"/>
      <point x="593" y="-13"/>
      <point x="395" y="-13" type="curve" smooth="yes"/>
      <point x="195" y="-13"/>
      <point x="35" y="148"/>
      <point x="35" y="349" type="curve" smooth="yes"/>
      <point x="35" y="547"/>
      <point x="198" y="706"/>
    </contour>
    <contour>
      <point x="400" y="673" type="curve" smooth="yes"/>
      <point x="300" y="673"/>
      <point x="217" y="637"/>
      <point x="152" y="565" type="curve" smooth="yes"/>
      <point x="98" y="506"/>
      <point x="68" y="428"/>
      <point x="68" y="349" type="curve" smooth="yes"/>
      <point x="68" y="166"/>
      <point x="213" y="20"/>
      <point x="395" y="20" type="curve" smooth="yes"/>
      <point x="575" y="20"/>
      <point x="721" y="166"/>
      <point x="721" y="347" type="curve" smooth="yes"/>
      <point x="721" y="441"/>
      <point x="684" y="524"/>
      <point x="613" y="589" type="curve" smooth="yes"/>
      <point x="556" y="641"/>
      <point x="474" y="673"/>
    </contour>
  </outline>
</glyph>
<glyph name="a150" format="1">
  <advance width="788"/>
  <unicode hex="278A"/>
  <outline>
    <contour>
      <point x="401" y="706" type="curve" smooth="yes"/>
      <point x="594" y="706"/>
      <point x="755" y="543"/>
      <point x="755" y="347" type="curve" smooth="yes"/>
      <point x="755" y="148"/>
      <point x="594" y="-13"/>
      <point x="395" y="-13" type="curve" smooth="yes"/>
      <point x="195" y="-13"/>
      <point x="35" y="148"/>
      <point x="35" y="350" type="curve" smooth="yes"/>
      <point x="35" y="548"/>
      <point x="198" y="706"/>
    </contour>
    <contour>
      <point x="445" y="601" type="line"/>
      <point x="380" y="601" type="line"/>
      <point x="368" y="541"/>
      <point x="345" y="527"/>
      <point x="258" y="528" type="curve"/>
      <point x="258" y="474" type="line"/>
      <point x="354" y="474" type="line"/>
      <point x="354" y="118" type="line"/>
      <point x="445" y="118" type="line"/>
    </contour>
  </outline>
</glyph>
<glyph name="a151" format="1">
  <advance width="788"/>
  <unicode hex="278B"/>
  <outline>
    <contour>
      <point x="400" y="706" type="curve" smooth="yes"/>
      <point x="593" y="706"/>
      <point x="754" y="542"/>
      <point x="754" y="347" type="curve" smooth="yes"/>
      <point x="754" y="148"/>
      <point x="593" y="-13"/>
      <point x="394" y="-13" type="curve" smooth="yes"/>
      <point x="194" y="-13"/>
      <point x="34" y="148"/>
      <point x="34" y="349" type="curve" smooth="yes"/>
      <point x="34" y="547"/>
      <point x="197" y="706"/>
    </contour>
    <contour>
      <point x="551" y="183" type="line"/>
      <point x="329" y="183" type="line"/>
      <point x="339" y="203"/>
      <point x="350" y="213"/>
      <point x="397" y="244" type="curve" smooth="yes"/>
      <point x="426" y="264"/>
      <point x="451" y="281"/>
      <point x="471" y="296" type="curve" smooth="yes"/>
      <point x="532" y="343"/>
      <point x="559" y="389"/>
      <point x="559" y="449" type="curve" smooth="yes"/>
      <point x="559" y="539"/>
      <point x="488" y="605"/>
      <point x="390" y="605" type="curve" smooth="yes"/>
      <point x="296" y="605"/>
      <point x="226" y="541"/>
      <point x="226" y="454" type="curve" smooth="yes"/>
      <point x="226" y="450"/>
      <point x="226" y="442"/>
      <point x="227" y="434" type="curve"/>
      <point x="315" y="426" type="line"/>
      <point x="314" y="435"/>
      <point x="314" y="442"/>
      <point x="314" y="446" type="curve" smooth="yes"/>
      <point x="314" y="507"/>
      <point x="343" y="545"/>
      <point x="389" y="545" type="curve" smooth="yes"/>
      <point x="435" y="545"/>
      <point x="467" y="506"/>
      <point x="467" y="449" type="curve" smooth="yes"/>
      <point x="467" y="391"/>
      <point x="442" y="358"/>
      <point x="358" y="304" type="curve" smooth="yes"/>
      <point x="310" y="273"/>
      <point x="292" y="259"/>
      <point x="270" y="232" type="curve" smooth="yes"/>
      <point x="247" y="203"/>
      <point x="233" y="170"/>
      <point x="233" y="139" type="curve" smooth="yes"/>
      <point x="233" y="135"/>
      <point x="234" y="127"/>
      <point x="235" y="118" type="curve"/>
      <point x="551" y="118" type="line"/>
    </contour>
  </outline>
</glyph>
<glyph name="a154" format="1">
  <advance width="788"/>
  <unicode hex="278E"/>
  <outline>
    <contour>
      <point x="400" y="706" type="curve" smooth="yes"/>
      <point x="593" y="706"/>
      <point x="754" y="543"/>
      <point x="754" y="347" type="curve" smooth="yes"/>
      <point x="754" y="148"/>
      <point x="593" y="-13"/>
      <point x="394" y="-13" type="curve" smooth="yes"/>
      <point x="195" y="-13"/>
      <point x="35" y="148"/>
      <point x="35" y="349" type="curve" smooth="yes"/>
      <point x="35" y="547"/>
      <point x="197" y="706"/>
    </contour>
    <contour>
      <point x="255" y="600" type="line"/>
      <point x="255" y="319" type="line"/>
      <point x="326" y="319" type="line"/>
      <point x="336" y="373"/>
      <point x="361" y="400"/>
      <point x="402" y="400" type="curve" smooth="yes"/>
      <point x="428" y="400"/>
      <point x="453" y="386"/>
      <point x="467" y="365" type="curve" smooth="yes"/>
      <point x="478" y="347"/>
      <point x="482" y="328"/>
      <point x="482" y="291" type="curve" smooth="yes"/>
      <point x="482" y="214"/>
      <point x="452" y="171"/>
      <point x="399" y="171" type="curve" smooth="yes"/>
      <point x="352" y="171"/>
      <point x="326" y="204"/>
      <point x="326" y="261" type="curve"/>
      <point x="255" y="242" type="line"/>
      <point x="259" y="161"/>
      <point x="313" y="111"/>
      <point x="397" y="111" type="curve" smooth="yes"/>
      <point x="499" y="111"/>
      <point x="572" y="187"/>
      <point x="572" y="293" type="curve" smooth="yes"/>
      <point x="572" y="393"/>
      <point x="506" y="460"/>
      <point x="408" y="460" type="curve" smooth="yes"/>
      <point x="377" y="460"/>
      <point x="360" y="456"/>
      <point x="326" y="440" type="curve"/>
      <point x="326" y="535" type="line"/>
      <point x="536" y="535" type="line"/>
      <point x="536" y="600" type="line"/>
    </contour>
  </outline>
</glyph>
<glyph name="a158" format="1">
  <advance width="788"/>
  <unicode hex="2792"/>
  <outline>
    <contour>
      <point x="384" y="551" type="curve" smooth="yes"/>
      <point x="432" y="551"/>
      <point x="467" y="505"/>
      <point x="467" y="444" type="curve" smooth="yes"/>
      <point x="467" y="388"/>
      <point x="433" y="346"/>
      <point x="387" y="346" type="curve" smooth="yes"/>
      <point x="342" y="346"/>
      <point x="314" y="387"/>
      <point x="314" y="453" type="curve" smooth="yes"/>
      <point x="314" y="513"/>
      <point x="341" y="551"/>
    </contour>
    <contour>
      <point x="400" y="706" type="curve" smooth="yes"/>
      <point x="593" y="706"/>
      <point x="754" y="542"/>
      <point x="754" y="347" type="curve" smooth="yes"/>
      <point x="754" y="148"/>
      <point x="593" y="-13"/>
      <point x="395" y="-13" type="curve" smooth="yes"/>
      <point x="195" y="-13"/>
      <point x="35" y="148"/>
      <point x="35" y="349" type="curve" smooth="yes"/>
      <point x="35" y="547"/>
      <point x="198" y="706"/>
    </contour>
    <contour>
      <point x="325" y="239" type="curve"/>
      <point x="249" y="225" type="line"/>
      <point x="255" y="190"/>
      <point x="260" y="174"/>
      <point x="272" y="157" type="curve" smooth="yes"/>
      <point x="294" y="125"/>
      <point x="335" y="106"/>
      <point x="380" y="106" type="curve" smooth="yes"/>
      <point x="440" y="106"/>
      <point x="493" y="137"/>
      <point x="524" y="191" type="curve" smooth="yes"/>
      <point x="545" y="227"/>
      <point x="557" y="290"/>
      <point x="557" y="362" type="curve" smooth="yes"/>
      <point x="557" y="448"/>
      <point x="542" y="511"/>
      <point x="512" y="549" type="curve" smooth="yes"/>
      <point x="482" y="588"/>
      <point x="440" y="608"/>
      <point x="390" y="608" type="curve" smooth="yes"/>
      <point x="298" y="608"/>
      <point x="230" y="537"/>
      <point x="230" y="440" type="curve" smooth="yes"/>
      <point x="230" y="348"/>
      <point x="290" y="282"/>
      <point x="374" y="282" type="curve" smooth="yes"/>
      <point x="414" y="282"/>
      <point x="445" y="294"/>
      <point x="472" y="321" type="curve"/>
      <point x="467" y="246"/>
      <point x="457" y="214"/>
      <point x="431" y="186" type="curve" smooth="yes"/>
      <point x="419" y="174"/>
      <point x="401" y="166"/>
      <point x="385" y="166" type="curve" smooth="yes"/>
      <point x="353" y="166"/>
      <point x="335" y="187"/>
    </contour>
  </outline>
</glyph>
<glyph name="a159" format="1">
  <advance width="788"/>
  <unicode hex="2793"/>
  <outline>
    <contour>
      <point x="484" y="549" type="curve" smooth="yes"/>
      <point x="530" y="549"/>
      <point x="555" y="481"/>
      <point x="555" y="351" type="curve" smooth="yes"/>
      <point x="555" y="230"/>
      <point x="531" y="165"/>
      <point x="487" y="165" type="curve" smooth="yes"/>
      <point x="442" y="165"/>
      <point x="414" y="239"/>
      <point x="414" y="361" type="curve" smooth="yes"/>
      <point x="414" y="483"/>
      <point x="438" y="549"/>
    </contour>
    <contour>
      <point x="400" y="706" type="curve" smooth="yes"/>
      <point x="593" y="706"/>
      <point x="754" y="542"/>
      <point x="754" y="347" type="curve" smooth="yes"/>
      <point x="754" y="148"/>
      <point x="594" y="-13"/>
      <point x="395" y="-13" type="curve" smooth="yes"/>
      <point x="194" y="-13"/>
      <point x="35" y="148"/>
      <point x="35" y="349" type="curve" smooth="yes"/>
      <point x="35" y="547"/>
      <point x="198" y="706"/>
    </contour>
    <contour>
      <point x="301" y="601" type="line"/>
      <point x="235" y="601" type="line"/>
      <point x="229" y="547"/>
      <point x="199" y="525"/>
      <point x="132" y="526" type="curve"/>
      <point x="132" y="472" type="line"/>
      <point x="215" y="472" type="line"/>
      <point x="215" y="117" type="line"/>
      <point x="301" y="117" type="line"/>
    </contour>
    <contour>
      <point x="486" y="608" type="curve" smooth="yes"/>
      <point x="440" y="608"/>
      <point x="401" y="589"/>
      <point x="373" y="555" type="curve" smooth="yes"/>
      <point x="341" y="515"/>
      <point x="326" y="452"/>
      <point x="326" y="362" type="curve" smooth="yes"/>
      <point x="326" y="196"/>
      <point x="381" y="106"/>
      <point x="483" y="106" type="curve" smooth="yes"/>
      <point x="587" y="106"/>
      <point x="643" y="193"/>
      <point x="643" y="354" type="curve" smooth="yes"/>
      <point x="643" y="523"/>
      <point x="590" y="608"/>
    </contour>
  </outline>
</glyph>
<glyph name="a160" format="1">
  <advance width="894"/>
  <unicode hex="2794"/>
  <outline>
    <contour>
      <point x="398" y="634" type="line"/>
      <point x="577" y="634" type="line"/>
      <point x="860" y="345" type="line"/>
      <point x="577" y="58" type="line"/>
      <point x="398" y="58" type="line"/>
      <point x="613" y="282" type="line"/>
      <point x="35" y="282" type="line"/>
      <point x="35" y="414" type="line"/>
      <point x="613" y="414" type="line"/>
    </contour>
  </outline>
</glyph>
<glyph name="a196" format="1">
  <advance width="748"/>
  <unicode hex="2798"/>
  <outline>
    <contour>
      <point x="123" y="597" type="line"/>
      <point x="448" y="320" type="line"/>
      <point x="526" y="437" type="line"/>
      <point x="698" y="94" type="line"/>
      <point x="320" y="145" type="line"/>
      <point x="403" y="257" type="line"/>
      <point x="35" y="472" type="line"/>
    </contour>
  </outline>
</glyph>
<glyph name="a192" format="1">
  <advance width="748"/>
  <unicode hex="279A"/>
  <outline>
    <contour>
      <point x="123" y="94" type="line"/>
      <point x="35" y="219" type="line"/>
      <point x="403" y="434" type="line"/>
      <point x="320" y="547" type="line"/>
      <point x="698" y="597" type="line"/>
      <point x="526" y="255" type="line"/>
      <point x="448" y="371" type="line"/>
    </contour>
  </outline>
</glyph>
<glyph name="a166" format="1">
  <advance width="918"/>
  <unicode hex="279B"/>
  <outline>
    <contour>
      <point x="35" y="368" type="line"/>
      <point x="398" y="354" type="line"/>
      <point x="361" y="402"/>
      <point x="320" y="467"/>
      <point x="293" y="522" type="curve"/>
      <point x="293" y="526" type="line"/>
      <point x="549" y="415"/>
      <point x="649" y="384"/>
      <point x="884" y="345" type="curve"/>
      <point x="827" y="341"/>
      <point x="694" y="312"/>
      <point x="576" y="277" type="curve"/>
      <point x="502" y="254"/>
      <point x="445" y="232"/>
      <point x="293" y="167" type="curve"/>
      <point x="319" y="222"/>
      <point x="361" y="290"/>
      <point x="398" y="338" type="curve"/>
      <point x="35" y="323" type="line"/>
    </contour>
  </outline>
</glyph>
<glyph name="a168" format="1">
  <advance width="928"/>
  <unicode hex="279D"/>
  <outline>
    <contour>
      <point x="35" y="362" type="line"/>
      <point x="672" y="362" type="line"/>
      <point x="672" y="562" type="line"/>
      <point x="891" y="345" type="line"/>
      <point x="672" y="129" type="line"/>
      <point x="672" y="329" type="line"/>
      <point x="35" y="329" type="line"/>
    </contour>
  </outline>
</glyph>
<glyph name="a169" format="1">
  <advance width="928"/>
  <unicode hex="279E"/>
  <outline>
    <contour>
      <point x="35" y="400" type="line"/>
      <point x="674" y="400" type="line"/>
      <point x="674" y="561" type="line"/>
      <point x="893" y="344" type="line"/>
      <point x="674" y="129" type="line"/>
      <point x="674" y="288" type="line"/>
      <point x="35" y="288" type="line"/>
    </contour>
  </outline>
</glyph>
<glyph name="a170" format="1">
  <advance width="834"/>
  <unicode hex="279F"/>
  <outline>
    <contour>
      <point x="310" y="434" type="line"/>
      <point x="571" y="434" type="line"/>
      <point x="571" y="537" type="line"/>
      <point x="799" y="345" type="line"/>
      <point x="571" y="154" type="line"/>
      <point x="571" y="257" type="line"/>
      <point x="310" y="257" type="line"/>
    </contour>
    <contour>
      <point x="208" y="434" type="line"/>
      <point x="284" y="434" type="line"/>
      <point x="284" y="257" type="line"/>
      <point x="208" y="257" type="line"/>
    </contour>
    <contour>
      <point x="125" y="434" type="line"/>
      <point x="170" y="434" type="line"/>
      <point x="170" y="257" type="line"/>
      <point x="125" y="257" type="line"/>
    </contour>
    <contour>
      <point x="35" y="434" type="line"/>
      <point x="59" y="434" type="line"/>
      <point x="59" y="257" type="line"/>
      <point x="35" y="257" type="line"/>
    </contour>
  </outline>
</glyph>
<glyph name="a171" format="1">
  <advance width="873"/>
  <unicode hex="27A0"/>
  <outline>
    <contour>
      <point x="407" y="488" type="line"/>
      <point x="583" y="488" type="line"/>
      <point x="583" y="594" type="line"/>
      <point x="590" y="594" type="line"/>
      <point x="624" y="490"/>
      <point x="723" y="389"/>
      <point x="838" y="342" type="curve"/>
      <point x="730" y="298"/>
      <point x="627" y="197"/>
      <point x="590" y="97" type="curve"/>
      <point x="583" y="97" type="line"/>
      <point x="583" y="201" type="line"/>
      <point x="407" y="201" type="line"/>
    </contour>
    <contour>
      <point x="310" y="488" type="line"/>
      <point x="381" y="488" type="line"/>
      <point x="381" y="201" type="line"/>
      <point x="310" y="201" type="line"/>
    </contour>
    <contour>
      <point x="220" y="488" type="line"/>
      <point x="270" y="488" type="line"/>
      <point x="270" y="201" type="line"/>
      <point x="220" y="201" type="line"/>
    </contour>
    <contour>
      <point x="129" y="488" type="line"/>
      <point x="162" y="488" type="line"/>
      <point x="162" y="201" type="line"/>
      <point x="129" y="201" type="line"/>
    </contour>
    <contour>
      <point x="35" y="488" type="line"/>
      <point x="54" y="488" type="line"/>
      <point x="54" y="201" type="line"/>
      <point x="35" y="201" type="line"/>
    </contour>
  </outline>
</glyph>
<glyph name="a172" format="1">
  <advance width="828"/>
  <unicode hex="27A1"/>
  <outline>
    <contour>
      <point x="35" y="491" type="line"/>
      <point x="546" y="491" type="line"/>
      <point x="546" y="588" type="line"/>
      <point x="791" y="346" type="line"/>
      <point x="546" y="104" type="line"/>
      <point x="546" y="201" type="line"/>
      <point x="35" y="201" type="line"/>
    </contour>
  </outline>
</glyph>
<glyph name="a174" format="1">
  <advance width="917"/>
  <unicode hex="27A4"/>
  <outline>
    <contour>
      <point x="35" y="688" type="line"/>
      <point x="882" y="346" type="line"/>
      <point x="35" y="4" type="line"/>
      <point x="236" y="346" type="line"/>
    </contour>
  </outline>
</glyph>
<glyph name="a176" format="1">
  <advance width="931"/>
  <unicode hex="27A6"/>
  <outline>
    <contour>
      <point x="545" y="144" type="line"/>
      <point x="545" y="228" type="line"/>
      <point x="254" y="228" type="line" smooth="yes"/>
      <point x="158" y="228"/>
      <point x="144" y="226"/>
      <point x="117" y="210" type="curve" smooth="yes"/>
      <point x="89" y="193"/>
      <point x="75" y="155"/>
      <point x="75" y="95" type="curve" smooth="yes"/>
      <point x="75" y="84" type="line"/>
      <point x="35" y="84" type="line"/>
      <point x="35" y="311" type="line" smooth="yes"/>
      <point x="35" y="407"/>
      <point x="44" y="442"/>
      <point x="81" y="480" type="curve" smooth="yes"/>
      <point x="106" y="506"/>
      <point x="137" y="520"/>
      <point x="179" y="524" type="curve" smooth="yes"/>
      <point x="189" y="525"/>
      <point x="189" y="525"/>
      <point x="230" y="525" type="curve" smooth="yes"/>
      <point x="545" y="525" type="line"/>
      <point x="545" y="608" type="line"/>
      <point x="896" y="376" type="line"/>
    </contour>
  </outline>
</glyph>
<glyph name="a177" format="1">
  <advance width="463"/>
  <unicode hex="27A7"/>
  <outline>
    <contour>
      <point x="429" y="346" type="line"/>
      <point x="163" y="-100" type="line"/>
      <point x="163" y="45" type="line"/>
      <point x="35" y="45" type="line"/>
      <point x="35" y="646" type="line"/>
      <point x="163" y="646" type="line"/>
      <point x="163" y="790" type="line"/>
    </contour>
  </outline>
</glyph>
<glyph name="a178" format="1">
  <advance width="883"/>
  <unicode hex="27A8"/>
  <outline>
    <contour>
      <point x="35" y="528" type="line"/>
      <point x="429" y="528" type="line"/>
      <point x="429" y="621" type="line"/>
      <point x="440" y="621" type="line"/>
      <point x="539" y="467"/>
      <point x="681" y="372"/>
      <point x="848" y="350" type="curve"/>
      <point x="848" y="342" type="line"/>
      <point x="672" y="312"/>
      <point x="541" y="225"/>
      <point x="440" y="70" type="curve"/>
      <point x="429" y="70" type="line"/>
      <point x="429" y="163" type="line"/>
      <point x="35" y="163" type="line"/>
    </contour>
  </outline>
</glyph>
<glyph name="a179" format="1">
  <advance width="836"/>
  <unicode hex="27A9"/>
  <outline>
    <contour>
      <point x="409" y="648" type="line"/>
      <point x="537" y="648" type="line"/>
      <point x="802" y="344" type="line"/>
      <point x="537" y="43" type="line"/>
      <point x="409" y="43" type="line"/>
      <point x="409" y="199" type="line"/>
      <point x="35" y="199" type="line"/>
      <point x="35" y="490" type="line"/>
      <point x="409" y="490" type="line"/>
    </contour>
    <contour>
      <point x="433" y="626" type="line"/>
      <point x="433" y="466" type="line"/>
      <point x="59" y="466" type="line"/>
      <point x="59" y="223" type="line"/>
      <point x="433" y="223" type="line"/>
      <point x="433" y="63" type="line"/>
      <point x="683" y="344" type="line"/>
    </contour>
  </outline>
</glyph>
<glyph name="a180" format="1">
  <advance width="867"/>
  <unicode hex="27AB"/>
  <outline>
    <contour>
      <point x="668" y="589" type="line"/>
      <point x="832" y="407" type="line"/>
      <point x="832" y="290" type="line"/>
      <point x="382" y="101" type="line"/>
      <point x="382" y="193" type="line"/>
      <point x="35" y="193" type="line"/>
      <point x="35" y="320" type="line"/>
      <point x="215" y="504" type="line"/>
      <point x="600" y="504" type="line"/>
    </contour>
    <contour>
      <point x="668" y="557" type="line"/>
      <point x="609" y="485" type="line"/>
      <point x="224" y="485" type="line"/>
      <point x="56" y="310" type="line"/>
      <point x="470" y="310" type="line"/>
      <point x="411" y="233" type="line"/>
      <point x="810" y="400" type="line"/>
    </contour>
  </outline>
</glyph>
<glyph name="a199" format="1">
  <advance width="867"/>
  <unicode hex="27AC"/>
  <outline>
    <contour>
      <point x="669" y="101" type="line"/>
      <point x="602" y="185" type="line"/>
      <point x="215" y="185" type="line"/>
      <point x="35" y="372" type="line"/>
      <point x="35" y="499" type="line"/>
      <point x="384" y="499" type="line"/>
      <point x="384" y="591" type="line"/>
      <point x="832" y="402" type="line"/>
      <point x="832" y="284" type="line"/>
    </contour>
    <contour>
      <point x="670" y="132" type="line"/>
      <point x="810" y="291" type="line"/>
      <point x="413" y="458" type="line"/>
      <point x="471" y="382" type="line"/>
      <point x="56" y="382" type="line"/>
      <point x="224" y="204" type="line"/>
      <point x="611" y="204" type="line"/>
    </contour>
  </outline>
</glyph>
<glyph name="a181" format="1">
  <advance width="696"/>
  <unicode hex="27AD"/>
  <outline>
    <contour>
      <point x="283" y="651" type="line"/>
      <point x="661" y="323" type="line"/>
      <point x="367" y="44" type="line"/>
      <point x="283" y="107" type="line"/>
      <point x="283" y="124" type="line"/>
      <point x="117" y="124" type="line"/>
      <point x="35" y="205" type="line"/>
      <point x="35" y="546" type="line"/>
      <point x="283" y="546" type="line"/>
    </contour>
    <contour>
      <point x="307" y="124" type="line"/>
      <point x="566" y="366" type="line"/>
      <point x="307" y="593" type="line"/>
      <point x="307" y="514" type="line"/>
      <point x="59" y="514" type="line"/>
      <point x="59" y="221" type="line"/>
      <point x="307" y="221" type="line"/>
    </contour>
  </outline>
</glyph>
<glyph name="a200" format="1">
  <advance width="696"/>
  <unicode hex="27AE"/>
  <outline>
    <contour>
      <point x="283" y="44" type="line"/>
      <point x="283" y="149" type="line"/>
      <point x="35" y="149" type="line"/>
      <point x="35" y="485" type="line"/>
      <point x="117" y="566" type="line"/>
      <point x="283" y="566" type="line"/>
      <point x="283" y="583" type="line"/>
      <point x="367" y="646" type="line"/>
      <point x="661" y="369" type="line"/>
    </contour>
    <contour>
      <point x="307" y="469" type="line"/>
      <point x="59" y="469" type="line"/>
      <point x="59" y="182" type="line"/>
      <point x="307" y="182" type="line"/>
      <point x="307" y="102" type="line"/>
      <point x="566" y="327" type="line"/>
      <point x="307" y="566" type="line"/>
    </contour>
  </outline>
</glyph>
<glyph name="a182" format="1">
  <advance width="874"/>
  <unicode hex="27AF"/>
  <outline>
    <contour>
      <point x="571" y="613" type="line"/>
      <point x="840" y="342" type="line"/>
      <point x="565" y="75" type="line"/>
      <point x="565" y="171" type="line"/>
      <point x="103" y="171" type="line"/>
      <point x="35" y="236" type="line"/>
      <point x="103" y="367" type="line"/>
      <point x="42" y="523" type="line"/>
      <point x="571" y="523" type="line"/>
    </contour>
    <contour>
      <point x="590" y="556" type="line"/>
      <point x="590" y="499" type="line"/>
      <point x="76" y="499" type="line"/>
      <point x="131" y="367" type="line"/>
      <point x="63" y="236" type="line"/>
      <point x="584" y="236" type="line"/>
      <point x="584" y="186" type="line"/>
      <point x="776" y="367" type="line"/>
    </contour>
  </outline>
</glyph>
<glyph name="a201" format="1">
  <advance width="874"/>
  <unicode hex="27B1"/>
  <outline>
    <contour>
      <point x="571" y="75" type="line"/>
      <point x="571" y="165" type="line"/>
      <point x="35" y="165" type="line"/>
      <point x="103" y="321" type="line"/>
      <point x="35" y="452" type="line"/>
      <point x="103" y="517" type="line"/>
      <point x="565" y="517" type="line"/>
      <point x="565" y="613" type="line"/>
      <point x="840" y="346" type="line"/>
    </contour>
    <contour>
      <point x="590" y="132" type="line"/>
      <point x="776" y="321" type="line"/>
      <point x="584" y="503" type="line"/>
      <point x="584" y="452" type="line"/>
      <point x="63" y="452" type="line"/>
      <point x="131" y="321" type="line"/>
      <point x="76" y="189" type="line"/>
      <point x="590" y="189" type="line"/>
    </contour>
  </outline>
</glyph>
<glyph name="a183" format="1">
  <advance width="760"/>
  <unicode hex="27B2"/>
  <outline>
    <contour>
      <point x="389" y="542" type="line"/>
      <point x="35" y="542" type="line"/>
      <point x="41" y="580"/>
      <point x="54" y="603"/>
      <point x="84" y="625" type="curve" smooth="yes"/>
      <point x="134" y="663"/>
      <point x="239" y="690"/>
      <point x="335" y="690" type="curve" smooth="yes"/>
      <point x="454" y="690"/>
      <point x="560" y="650"/>
      <point x="629" y="578" type="curve"/>
      <point x="691" y="515"/>
      <point x="725" y="432"/>
      <point x="725" y="346" type="curve" smooth="yes"/>
      <point x="725" y="247"/>
      <point x="679" y="152"/>
      <point x="602" y="87" type="curve"/>
      <point x="535" y="33"/>
      <point x="438" y="1"/>
      <point x="335" y="1" type="curve" smooth="yes"/>
      <point x="231" y="1"/>
      <point x="122" y="31"/>
      <point x="75" y="73" type="curve" smooth="yes"/>
      <point x="51" y="95"/>
      <point x="40" y="115"/>
      <point x="35" y="149" type="curve"/>
      <point x="389" y="149" type="line"/>
      <point x="389" y="29" type="line"/>
      <point x="701" y="346" type="line"/>
      <point x="389" y="662" type="line"/>
    </contour>
  </outline>
</glyph>
<glyph name="a197" format="1">
  <advance width="771"/>
  <unicode hex="27B4"/>
  <outline>
    <contour>
      <point x="490" y="267" type="line"/>
      <point x="615" y="162" type="line"/>
      <point x="619" y="206"/>
      <point x="651" y="247"/>
      <point x="686" y="255" type="curve"/>
      <point x="685" y="241"/>
      <point x="685" y="232"/>
      <point x="685" y="223" type="curve" smooth="yes"/>
      <point x="685" y="171"/>
      <point x="702" y="112"/>
      <point x="736" y="48" type="curve"/>
      <point x="728" y="36" type="line"/>
      <point x="684" y="51"/>
      <point x="630" y="60"/>
      <point x="581" y="60" type="curve" smooth="yes"/>
      <point x="558" y="60"/>
      <point x="541" y="57"/>
      <point x="515" y="48" type="curve"/>
      <point x="515" y="83"/>
      <point x="555" y="128"/>
      <point x="591" y="133" type="curve"/>
      <point x="466" y="238" type="line"/>
    </contour>
    <contour>
      <point x="295" y="227" type="curve"/>
      <point x="34" y="445" type="line"/>
      <point x="70" y="452"/>
      <point x="124" y="456"/>
      <point x="203" y="459" type="curve"/>
      <point x="462" y="241" type="line"/>
      <point x="404" y="241"/>
      <point x="361" y="238"/>
    </contour>
    <contour>
      <point x="210" y="655" type="curve"/>
      <point x="470" y="437" type="line"/>
      <point x="471" y="378"/>
      <point x="477" y="312"/>
      <point x="486" y="270" type="curve"/>
      <point x="227" y="487" type="line"/>
      <point x="220" y="522"/>
      <point x="210" y="625"/>
    </contour>
  </outline>
</glyph>
<glyph name="a185" format="1">
  <advance width="865"/>
  <unicode hex="27B5"/>
  <outline>
    <contour>
      <point x="499" y="360" type="line"/>
      <point x="660" y="360" type="line"/>
      <point x="646" y="386"/>
      <point x="642" y="403"/>
      <point x="642" y="427" type="curve" smooth="yes"/>
      <point x="642" y="453"/>
      <point x="646" y="465"/>
      <point x="660" y="483" type="curve"/>
      <point x="699" y="423"/>
      <point x="748" y="384"/>
      <point x="814" y="360" type="curve" smooth="yes"/>
      <point x="818" y="359"/>
      <point x="823" y="356"/>
      <point x="830" y="353" type="curve"/>
      <point x="830" y="341" type="line"/>
      <point x="757" y="310"/>
      <point x="684" y="254"/>
      <point x="660" y="209" type="curve"/>
      <point x="646" y="226"/>
      <point x="641" y="241"/>
      <point x="641" y="266" type="curve" smooth="yes"/>
      <point x="641" y="290"/>
      <point x="647" y="307"/>
      <point x="660" y="326" type="curve"/>
      <point x="499" y="326" type="line"/>
    </contour>
    <contour>
      <point x="375" y="209" type="curve"/>
      <point x="36" y="209" type="line"/>
      <point x="60" y="238"/>
      <point x="107" y="284"/>
      <point x="156" y="326" type="curve"/>
      <point x="499" y="326" type="line"/>
      <point x="452" y="289"/>
      <point x="427" y="265"/>
    </contour>
    <contour>
      <point x="35" y="483" type="curve"/>
      <point x="374" y="483" type="line"/>
      <point x="411" y="440"/>
      <point x="462" y="390"/>
      <point x="499" y="360" type="curve"/>
      <point x="156" y="360" type="line"/>
      <point x="137" y="375"/>
      <point x="86" y="427"/>
    </contour>
  </outline>
</glyph>
<glyph name="a186" format="1">
  <advance width="967"/>
  <unicode hex="27B8"/>
  <outline>
    <contour>
      <point x="35" y="548" type="curve"/>
      <point x="373" y="548" type="line"/>
      <point x="382" y="485"/>
      <point x="409" y="432"/>
      <point x="448" y="400" type="curve" smooth="yes"/>
      <point x="482" y="372"/>
      <point x="524" y="362"/>
      <point x="602" y="362" type="curve" smooth="yes"/>
      <point x="734" y="362" type="line"/>
      <point x="692" y="403"/>
      <point x="663" y="484"/>
      <point x="661" y="568" type="curve"/>
      <point x="742" y="461"/>
      <point x="829" y="389"/>
      <point x="932" y="345" type="curve"/>
      <point x="846" y="313"/>
      <point x="751" y="236"/>
      <point x="661" y="123" type="curve"/>
      <point x="670" y="225"/>
      <point x="688" y="276"/>
      <point x="734" y="329" type="curve"/>
      <point x="600" y="329" type="line" smooth="yes"/>
      <point x="533" y="329"/>
      <point x="483" y="317"/>
      <point x="453" y="294" type="curve" smooth="yes"/>
      <point x="413" y="262"/>
      <point x="385" y="209"/>
      <point x="373" y="142" type="curve"/>
      <point x="35" y="142" type="line"/>
      <point x="46" y="239"/>
      <point x="102" y="316"/>
      <point x="182" y="345" type="curve"/>
      <point x="101" y="377"/>
      <point x="51" y="446"/>
    </contour>
  </outline>
</glyph>
<glyph name="a195" format="1">
  <advance width="888"/>
  <unicode hex="27B9"/>
  <outline>
    <contour>
      <point x="553" y="197" type="curve"/>
      <point x="294" y="-20" type="line"/>
      <point x="261" y="41"/>
      <point x="251" y="73"/>
      <point x="251" y="122" type="curve" smooth="yes"/>
      <point x="251" y="161"/>
      <point x="258" y="190"/>
      <point x="278" y="230" type="curve"/>
      <point x="245" y="219"/>
      <point x="231" y="216"/>
      <point x="215" y="216" type="curve" smooth="yes"/>
      <point x="147" y="216"/>
      <point x="92" y="239"/>
      <point x="34" y="291" type="curve"/>
      <point x="294" y="509" type="line"/>
      <point x="344" y="466"/>
      <point x="398" y="443"/>
      <point x="448" y="443" type="curve" smooth="yes"/>
      <point x="486" y="443"/>
      <point x="538" y="468"/>
      <point x="587" y="509" type="curve" smooth="yes"/>
      <point x="689" y="597" type="line"/>
      <point x="621" y="607"/>
      <point x="574" y="636"/>
      <point x="502" y="709" type="curve"/>
      <point x="589" y="692"/>
      <point x="628" y="687"/>
      <point x="686" y="687" type="curve" smooth="yes"/>
      <point x="751" y="687"/>
      <point x="801" y="694"/>
      <point x="853" y="710" type="curve"/>
      <point x="810" y="632"/>
      <point x="785" y="523"/>
      <point x="785" y="415" type="curve" smooth="yes"/>
      <point x="785" y="403"/>
      <point x="785" y="393"/>
      <point x="787" y="367" type="curve"/>
      <point x="740" y="425"/>
      <point x="710" y="498"/>
      <point x="710" y="552" type="curve" smooth="yes"/>
      <point x="710" y="555"/>
      <point x="710" y="563"/>
      <point x="711" y="571" type="curve"/>
      <point x="610" y="486" type="line" smooth="yes"/>
      <point x="539" y="427"/>
      <point x="513" y="383"/>
      <point x="513" y="324" type="curve" smooth="yes"/>
      <point x="513" y="280"/>
      <point x="524" y="247"/>
    </contour>
  </outline>
</glyph>
<glyph name="a188" format="1">
  <advance width="873"/>
  <unicode hex="27BB"/>
  <outline>
    <contour>
      <point x="838" y="350" type="curve"/>
      <point x="838" y="340" type="line"/>
      <point x="737" y="297"/>
      <point x="633" y="188"/>
      <point x="625" y="116" type="curve"/>
      <point x="576" y="148"/>
      <point x="549" y="193"/>
      <point x="549" y="245" type="curve" smooth="yes"/>
      <point x="549" y="285"/>
      <point x="565" y="310"/>
      <point x="611" y="339" type="curve"/>
      <point x="588" y="339" type="line" smooth="yes"/>
      <point x="534" y="339"/>
      <point x="473" y="325"/>
      <point x="433" y="304" type="curve" smooth="yes"/>
      <point x="406" y="290"/>
      <point x="401" y="287"/>
      <point x="352" y="243" type="curve"/>
      <point x="298" y="197"/>
      <point x="258" y="178"/>
      <point x="213" y="178" type="curve" smooth="yes"/>
      <point x="181" y="178"/>
      <point x="149" y="193"/>
      <point x="127" y="220" type="curve"/>
      <point x="114" y="234"/>
      <point x="104" y="256"/>
      <point x="91" y="293" type="curve" smooth="yes"/>
      <point x="77" y="335"/>
      <point x="67" y="344"/>
      <point x="36" y="350" type="curve"/>
      <point x="68" y="356"/>
      <point x="76" y="363"/>
      <point x="91" y="405" type="curve" smooth="yes"/>
      <point x="107" y="448"/>
      <point x="117" y="466"/>
      <point x="133" y="482" type="curve" smooth="yes"/>
      <point x="155" y="503"/>
      <point x="183" y="514"/>
      <point x="216" y="514" type="curve" smooth="yes"/>
      <point x="265" y="514"/>
      <point x="292" y="500"/>
      <point x="364" y="438" type="curve"/>
      <point x="435" y="374"/>
      <point x="493" y="354"/>
      <point x="611" y="352" type="curve"/>
      <point x="567" y="379"/>
      <point x="548" y="408"/>
      <point x="548" y="444" type="curve" smooth="yes"/>
      <point x="548" y="496"/>
      <point x="576" y="544"/>
      <point x="625" y="576" type="curve"/>
      <point x="633" y="503"/>
      <point x="739" y="391"/>
    </contour>
  </outline>
</glyph>
<glyph name="a189" format="1">
  <advance width="927"/>
  <unicode hex="27BC"/>
  <outline>
    <contour>
      <point x="80" y="542" type="curve" smooth="yes"/>
      <point x="322" y="542" type="line" smooth="yes"/>
      <point x="359" y="542"/>
      <point x="365" y="540"/>
      <point x="387" y="513" type="curve" smooth="yes"/>
      <point x="441" y="447" type="line" smooth="yes"/>
      <point x="476" y="405"/>
      <point x="487" y="399"/>
      <point x="535" y="399" type="curve" smooth="yes"/>
      <point x="617" y="399" type="line" smooth="yes"/>
      <point x="643" y="399"/>
      <point x="653" y="406"/>
      <point x="653" y="423" type="curve" smooth="yes"/>
      <point x="653" y="437"/>
      <point x="653" y="437"/>
      <point x="636" y="469" type="curve" smooth="yes"/>
      <point x="633" y="475"/>
      <point x="631" y="482"/>
      <point x="631" y="490" type="curve" smooth="yes"/>
      <point x="631" y="512"/>
      <point x="659" y="528"/>
      <point x="697" y="528" type="curve" smooth="yes"/>
      <point x="712" y="528"/>
      <point x="729" y="521"/>
      <point x="743" y="509" type="curve" smooth="yes"/>
      <point x="864" y="399" type="line" smooth="yes"/>
      <point x="881" y="383"/>
      <point x="891" y="364"/>
      <point x="891" y="346" type="curve" smooth="yes"/>
      <point x="891" y="328"/>
      <point x="882" y="312"/>
      <point x="862" y="293" type="curve" smooth="yes"/>
      <point x="755" y="192" type="line" smooth="yes"/>
      <point x="731" y="170"/>
      <point x="714" y="161"/>
      <point x="695" y="161" type="curve" smooth="yes"/>
      <point x="665" y="161"/>
      <point x="631" y="181"/>
      <point x="631" y="199" type="curve" smooth="yes"/>
      <point x="631" y="206"/>
      <point x="634" y="216"/>
      <point x="638" y="225" type="curve" smooth="yes"/>
      <point x="651" y="252"/>
      <point x="653" y="259"/>
      <point x="653" y="268" type="curve" smooth="yes"/>
      <point x="653" y="284"/>
      <point x="641" y="293"/>
      <point x="620" y="293" type="curve" smooth="yes"/>
      <point x="539" y="293" type="line" smooth="yes"/>
      <point x="486" y="293"/>
      <point x="476" y="288"/>
      <point x="442" y="245" type="curve" smooth="yes"/>
      <point x="394" y="186" type="line" smooth="yes"/>
      <point x="367" y="153"/>
      <point x="359" y="149"/>
      <point x="316" y="149" type="curve" smooth="yes"/>
      <point x="72" y="149" type="line" smooth="yes"/>
      <point x="51" y="149"/>
      <point x="35" y="162"/>
      <point x="35" y="180" type="curve" smooth="yes"/>
      <point x="35" y="190"/>
      <point x="35" y="190"/>
      <point x="49" y="209" type="curve"/>
      <point x="111" y="309" type="line" smooth="yes"/>
      <point x="126" y="334"/>
      <point x="127" y="336"/>
      <point x="127" y="346" type="curve" smooth="yes"/>
      <point x="127" y="356"/>
      <point x="124" y="363"/>
      <point x="109" y="386" type="curve" smooth="yes"/>
      <point x="50" y="477" type="line" smooth="yes"/>
      <point x="42" y="490"/>
      <point x="36" y="505"/>
      <point x="36" y="514" type="curve" smooth="yes"/>
      <point x="36" y="532"/>
      <point x="52" y="542"/>
    </contour>
  </outline>
</glyph>
